<?xml version="1.0" encoding="UTF-8"?>
<svg version="1.1" viewBox="0 0 1600 1600" width="1280" height="1280" xmlns="http://www.w3.org/2000/svg">
<path transform="translate(755,297)" d="m0 0h54l24 2 39 6 30 7 26 8 28 10 29 13 19 10 19 11 27 18 16 12 16 13 14 12 26 26 7 8 11 13 10 13 12 16 12 19 10 17 14 27 9 19 8 18 20 1 12 4 16 9 10 8 14 2 12 5 10 9 7 10 9 20 5 18 4 21 2 18 1 16v16l-2 25-5 26-5 17-7 17-6 10-6 7-10 6-12 5-10 3-17 12-16 7-11 2h-6l-3 10-14 37-14 30-15 28-12 19-9 13-9 12-8 10-9 11-12 13-27 27-8 7-17 14-18 13-24 16-24 14-25 13-28 12-36 12-27 7-31 6-23 3-41 3h-22l-37-3-38-6-30-7-20-6-21-7-31-13-28-14-19-11-19-12-15-11-11-8-10-8-10-9-8-7-16-15-8-8-7-8-10-11-11-14-13-18-12-17-14-24-10-18-14-31-6-17-11 2h-11l-12-4-9-7-8-10-3-2-18 1-13-2-6-5-11-23-9-24-6-21-5-25-3-28-1-20 2-28 3-19 8-30 10-30 6-11 5-4 31-1 12-14 8-7 11-4h13l13 5h2l8-23 16-34 12-22 15-24 14-19 13-17 13-15 14-15 17-17 8-7 12-11 13-10 18-13 16-11 26-15 21-11 29-13 35-12 40-10 22-4 29-4z" fill="#65ADCA"/>
<path transform="translate(755,297)" d="m0 0h54l24 2 39 6 30 7 26 8 28 10 29 13 19 10 19 11 27 18 16 12 16 13 14 12 26 26 7 8 11 13 10 13 12 16 12 19 10 17 14 27 9 19 8 18 20 1 12 4 16 9 10 8 14 2 12 5 10 9 7 10 9 20 5 18 4 21 1 16-5-4-10-2-4-3-7-3-4-3 1 16v18l-2 1-2-1-1 2-3-6-2-8-9-7-5-4-5-6-3-1-1-4-3-1v-2h-2l-2-5v-3l-2-1 1-2h-2v-4h-2l-3-12-8-19-7-17-6-9-7-6v-2h-2v-6l-5-6-5-3 9 29 2 33-2 18-4 18h-4l-2-35v-3l-8 2-2 7 2 35-1 4-2 1-1 8-3 9-2 7h-2l-2-10-2-14-3-9-5 3-3 4-2 11v7l2 3 4 12-4-1v-3h-2l-3-5-1-3-4-2-8-7-5-3v-2l-5-1-20-8-11-3-8-3-43-14-50-16-58-19-33-9-27-5-20-2h-51l-30 4-28 6-40 12-56 18-47 14-37 11-58 16-20 6-16 8-11 7-14 12-10 13-2 5h-2l-2 6-4 9-3 16v25l4 17 1 5h-3l-9-3-10-2-11-5-10-7-8-4 1 7-1 2-4 2h-6v4l-9-3-9-6-3 13-3 5-4-1-3-7-3-28-4-18-2-22-1-18v-6l-1 2h-2v22h-1l-1-7-1-14v133l-4 1-3-17-4-24-1-5-2 10-4-2-8-19-4-9-4-8h-4l-5-5-4-6v-4h-2l-1-5-4-2-4-4h-2l-4 8h-7l-1 2-3-27v-22l1-9 2 3 2 8 3 2 2-10h3l6 10 5 11 6 18 7 14-6-16v-3l-2-1-5-25-2-8-1-8v-12l-4-9-2-6h-2l-4-13v-5l-5-1-2 12-1 36-1 1-3 15-2 12v17l-2 4-8 1-9-1-7-3-5-9-2-18-1-42 1-27 1-12 4-20 1-7 7-16 5-6 2-1 31-1 12-14 8-7 11-4h13l13 5h2l8-23 16-34 12-22 15-24 14-19 13-17 13-15 14-15 17-17 8-7 12-11 13-10 18-13 16-11 26-15 21-11 29-13 35-12 40-10 22-4 29-4z" fill="#E8A9EB"/>
<path transform="translate(833,654)" d="m0 0h36l27 3 25 5 33 10 141 45 14 7 12 12 8 13 5 13 2 9 1 11v14l-2 14-4 15-7 16-8 13-8 10-10 10-14 10-21 12-24 13-15 8-28 13-29 13-37 15-30 10-17 4-20 3-12 1h-38l-25-3-30-7-39-12-36-12-41-14-29-11-41-16-21-10-12-8-10-8-11-11-10-14-8-16-5-18v-23l3-12 8-16 11-13 7-6 14-9 16-7 87-25 49-15 51-16 25-8 23-6 25-4z" fill="#020202"/>
<path transform="translate(475,417)" d="m0 0 5 3 2 10 4 2 4 3 8 4 5 2 4 5h9l4 2 1 5-7 13 2 9 1 1 7 1 4 5 1 4v8l9 3 5 3-3 6 1 9 7 3 1-4 10-3 4-3 4 1-1 8 3 8 4 2 7 1 1-6 2-1h11l4-1 1 6 6-1-1 3-9 6-3 1-1 4h9l9-2 4-4 4 1 5 4 7 6 12 3 16 2 16 8 8 3 6 5 4 2 14 1 6 4 6 5 16 4h7l6-4 10-1-1-4-2-1v-2l-3-1 1-2 9 1 8 4 15 3 12 4 3 3 1 4 6 4v4l-3 1 15 5 1 3-4 3-3-1-9 1-5 10-1 3-11 3-8 4 6 1 1 3 3 1 7-1 4 2-1 4-2 3-5 1h15l5 2v-2l6-1 9 1v1l-32 5-24 6-36 11-53 17-47 14-37 11-58 16-20 6-16 8-11 7-14 12-10 13-2 5h-2l-2 6-4 9-3 16v25l4 17 1 5h-3l-9-3-10-2-11-5-10-7-8-4 1 7-1 2-4 2h-6v4l-9-3-9-6-3 13-3 5-4-1-3-7-3-28-4-18-2-22-1-18v-6l-1 2h-2v22h-1l-1-7-1-14v133l-4 1-3-17-4-24-1-5-2 10-4-2-8-19-4-9-4-8h-4l-5-5-4-6v-4h-2l-1-5-4-2-4-4h-2l-4 8h-7l-1 2-3-27v-22l1-9 2 3 2 8 3 2 2-10h3l6 10 5 11 6 18 7 14-6-16v-3l-2-1-5-25-2-8-1-8v-12l-4-9-2-6h-2l-4-13v-5l-5-1-2 12-1 36-1 1-3 15-2 12v17l-2 4-8 1-9-1-7-3-5-9-2-18-1-42 1-27 1-12 4-20 1-7 7-16 5-6 2-1 31-1 12-14 8-7 11-4h13l13 5h2l8-23 16-34 12-22 15-24 14-19 13-17 13-15 14-15 17-17z" fill="#B1BFCD"/>
<path transform="translate(1218,605)" d="m0 0 5 2 6 7-1 6h2v2l4 2 8 9 5 11v3l2 1 2 6 5 11 4 11 1 9h2v4h2l2 6 1 5h2l4 5v2l4 1 1 3 3 1 5 5 10 8 4 13 4-1v-18l-1-17 8 5 7 3 6 2 7 2 4 6 1 16v16l-2 25-5 26-5 17-7 17-6 10-6 7-10 6-12 5-10 3-17 12-16 7-11 2h-6l-3 10-14 37-14 30-15 28-12 19-9 13-9 12-8 10-9 11-12 13-27 27-8 7-17 14-18 13-24 16-24 14-25 13-28 12-36 12-27 7-31 6-23 3-25 2h-27l-9-1 3-1v-2l15-5 4-3 12-6 4-4 3-1-3-2v-2l-5-1v-2l-3-1 1-2-3-1h-2-5v-4l-2-1v-3l-3-2 1-4h-3l-1-4 3-26 3-13 1-2h2l1-4 3-1 4-14h2l-1-3 3-4h3v-7h2l1-4 3-7 2-10h1l1-10 4-7 3-8-1-3 4-10 2-2h3l-1-3 3-1v-3h-7l-4-2v-2l-5-1v-2h30l29-2 27-4 24-6 21-7 32-13 52-23 6-3h8l3-1 11-1 27-9 8-2 12-5h2v-2l8-4 7-6 8-4 2-2 12-3 18-7 4-1v-2l11-6 7-5 9-4 3-3h2v-2l6-5 1-2h2l2-4 4-2 1-4 4-5 3-5 5-2 4-10 2-20 2-4 1-24 2-16v-46l-1-27-3-31-3-26-6-20-9-29z" fill="#4E6D7A"/>
<path transform="translate(615,959)" d="m0 0 5 1 37 13 43 14 41 13 29 8 25 5 27 3-4 1v2l3-1v2h2v2l11 2v3l-2 2v2l-4 2-5 12 2 1-5 12-2 3-1 11-2 4-3 9-3 7h-2v7l-4 2-1 5h-2l-3 14-4 1-1 4h-2l-4 21-2 24h3v4l3 3-1 2 3 1v3l7-1v2l2 1v2h3v2l4 2v2l4 2-15 10-8 4-9 4-7 1v2l17 2v1h-22l-37-3-38-6-30-7-20-6-21-7-31-13-28-14-19-11-19-12-15-11-11-8-4-6 4 2 11 8 7 5 5-1-2-10 8 2v-4h5v-6l5-1v-8l1-4v-11l-4-1-4-12-1-8h-3l-2-10h-4l-1-14 1-4-5 2-2-3v-4l4-3v-5h2l-1-12v-3-2l12-1 4 5 4 1 4-2h6l1 9 7-2h10l12 4h6l1-5 5-1 2 1v7l3-2-1-6 4 1 1 4v4l1-3v-5l3 1 4-1v-9l1-9 4-2-3-16-1-3h4l1-4h3l3-2v-2l3-1-8-8z" fill="#6199B5"/>
<path transform="translate(243,653)" d="m0 0 1 3-4 20-1 12-1 31 1 38 2 18 4 7v2l5 1 8 2h8l3-1 1-6v-15l3-14 2-12 1-1 1-36 2-12 4-1v2h2l3 12 1 6h2l6 12 1 3v13l2 13 2 8 3 16 8 20 1 7-2-3-9-20-6-18-7-13-3-3-3 10-4-2-2-8-1 6v22l3 25 7-1 4-8 5 2 5 5 1 5h2l3 7 4 5v2l6-1 7 14 4 10 6 14 3 2 1-10 2-1 3 16 2 14 2 10v7l3-1v-136l2-1 1 18 1-15 1-2h2l1 8 1 20 2 18 5 24 2 22 3 7h3l4-11 2-6 5 2 6 4 7 3-1-5h7l4-1v-2l4 2 1 1 1-2 4 2 5 3 2 7 4-1 5 2 1 3 2 1v2l4 1 2 2 2-1v3l4-2 4 6h7l3 2-1 8 3 4v2h3l7 8 3 3 3 7 4 4 3 2 2 5 2 1v3h2v2l7 1v2l4 1 4 5v2l6 2 4 4v2l3 1 1 4-5 2 2 7 2 5-5 1-2-1 3 9-1 5-3 1 3 7 3 11 2 10 3 12h-6l2 4-1 3v10h-2l1 6-5 2 2 5h3 2l1 13-1 5 4-1 2 5v6h3l3 12 3 8 3 1 1 3v8l-1 5v7l-3 1h-3v6h-5v4l-8-2 3 8v3l-6 1-19-14h-1l-1 2-14-12-26-24-9-9-7-8-10-11-11-14-13-18-12-17-14-24-10-18-14-31-6-17-11 2h-11l-12-4-9-7-8-10-3-2-18 1-13-2-6-5-11-23-9-24-6-21-5-25-3-28-1-20 2-28 3-19 8-30z" fill="#65BFD8"/>
<path transform="translate(475,417)" d="m0 0 5 3 2 10 4 2 4 3 8 4 5 2 4 5h9l4 2 1 5-7 13 2 9 1 1 7 1 4 5 1 4v8l9 3 5 3-3 6 1 9 7 3 1-4 10-3 4-3 4 1-1 8 3 8 4 2 7 1 1-6 2-1h11l4-1 1 6 6-1-1 3-9 6-3 1-1 4h9l9-2 4-4 4 1 5 4 7 6 12 3 16 2 16 8 8 3 6 5 4 2 14 1 6 4 6 5 16 4h7l6-4 10-1-1-4-2-1v-2l-3-1 1-2 9 1 8 4 15 3 12 4 3 3 1 4 6 4v4l-3 1 15 5 1 3-4 3-3-1-9 1-5 10-1 3-11 3-8 4 6 1 1 3 3 1 7-1 4 2-1 4-2 3-5 1h15l5 2v-2l6-1 9 1v1l-32 5-24 6-36 11-53 17-24 7h-8l-10-2v-2l-7-3h-12l-3-3-3-9-3-2-1-8 2-5-4-2 2-12-6 1 1-5 3-7-5-1 1-6-7-2-5-3-7-1-3 1-2-1v-2l-9-2v2l-7-1-12-5-20-5-11-4-10-8-6-4-5-5-9-7-12-6-10-9-1-1-16-2-1-5 4-10h2l1-10 2-4-11-11-5-9v-6l-7-7-3-6-1-7v-15h-2l-6 7-2-1 11-13 18-20 19-19z" fill="#C6BCD1"/>
<path transform="translate(755,297)" d="m0 0h54l24 2 39 6 30 7 26 8 28 10 29 13 19 10 19 11 9 6-4 1-17-9-11-6-14-8-22-9-15-7-27-9-9-2-13-4-14-3-18-3-22-3-8-2-38-3-28-1h-10l-32 2-25 3-18 3-27 7-40 13-12 5-12 6h14l6 7 7 1h27l6 4-2 6h3l1 2 36-13 28-6 24-4 20-2h49l31 3 23 4 32 8 36 13 25 12 16 9 16 10 17 11 16 12 13 11 9 9 11 9 10 10 11 14 11 12 13 13 8 7 7 7 7 8 13 16 13 19v8h-3l-4-9-7-9 10 23-1 3-3-2-4-7-3-5-4-10-4-3 1 5 3 6 1 9 6 10 10 24v3l-3-1-12-23-4-7-1-6-4-7-3-3-2-6-3-3-7-12-4-7v-2h-2l-7-11v-2h-2l-2-4-3-3-10-13-11-13-16-17-8-8-11-9-12-9-7-5v-2l-5-2-15-10-28-15-26-11-20-7-21-6-28-5-24-2h-10l-24 2-19 4-17 6-14 8-7 7-5 9-2 7v10l6 2 5 5-1 5-4 2-2 4-8 5v11l-5 14-1 1-9-1-6-4-1-7 2-2-1-5-4-2v3h-4v-3h-2v-3l-5 1 1-4-5-2-1 5-1 2h-4l1 7-2 2-6 1-3-5 1-9 1-3-5 5-1 5h-6l5 5 5 7 3-3 1 2 9 2 5-5 6 1 2 2-1 1 2 1v2h2v2l-3 1-14-2-6 3v5h2l1 3 4 3-1 3-5-1-4-4v-2l-7-2-10-6-3-1 5 9v4l4 2 4 4-1 3-5-2-6-4-4-5v-2l-4-1 3 5 4 4v2l4 2 8 5v4l-5-2v-2l-6-1-3-3h2l-4-4-5-2-3-3v-6-4l-5-8-2 2 1 8v12l4 2 4 3 1 8h-11l-4-3-1 4-4 2-3-1-4-1-6-4v-2h-4l-4-2-3-2v-2h-2v4l-5-1-3-4-3-1v-2l-4-1-2-7-2-6v-4h-4l-4 1v2l-7 1-5-5-1-5-1-3 2-3h2v-2l5-2h4l-2-9-8-9-2-1v-2l-5 2 1 5-1 2h-2l-1 7-6 2-6-2-1-3-3-1-1-7h-4v-6l9-8 7-5 4-7v-8-2l-1-3h-2v-2h2v-3l-10-3-5-3-1-4-5-5-3-4v-2l-6 1-1-3 17-10 24-13 26-12 24-9 25-8 33-8 22-4 29-4z" fill="#FEFEFE"/>
<path transform="translate(1218,605)" d="m0 0 5 2 6 7-1 6h2v2l4 2 8 9 5 11v3l2 1 2 6 5 11 4 11 1 9h2v4h2l2 6 1 5h2l4 5v2l4 1 1 3 3 1 5 5 10 8 4 13 4-1v-18l-1-17 8 5 7 3 6 2 7 2 4 6 1 16v16l-2 25-5 26-5 17-7 17-6 10-6 7-10 6-12 5-10 3-17 12-16 7-11 2h-6l-3 10-14 37-14 30-4 8-1-3 1-2h-5v2h-2l-2 4-2 3h-2v2h-2l-2 4-8 7-13 4-14 8-5 3-9 4h-2l-2 4-9 4-6 3-4 3-11 4-15 5-10 1-2 2-19 4-3 2-16 2-7 1-6 2-5-1h-13l-4-2h-6l-17-5-18-4v-4l8-4 1-4 7-4 6-3-2-2 16-7 4-5 3-1h12v-2l-3 1-12-1-3-1 2-3h-9l-3-3-1-4 30-13 29-13 6-3h8l3-1 11-1 27-9 8-2 12-5h2v-2l8-4 7-6 8-4 2-2 12-3 18-7 4-1v-2l11-6 7-5 9-4 3-3h2v-2l6-5 1-2h2l2-4 4-2 1-4 4-5 3-5 5-2 4-10 2-20 2-4 1-24 2-16v-46l-1-27-3-31-3-26-6-20-9-29z" fill="#736B7F"/>
<path transform="translate(320,600)" d="m0 0h13l13 5 4-1 3 35 2 39 1 14 1 32 1 8h2 3l3 13 4 1 5 9 1 8 2 1 1 7 2 1 3-1 5 7 2 1h12l6 4 7 1 16-3 6-5-3-3-7-1h-11l-14-4-5-3-3-4 1-3h13l9 3 4-5 5-4 8 1 2-1 3-15 3-7v-9l2-3 5-1 2 2 2-3 5-3 1-1h13l8-4 4 2 1 2 7 1v2l10 1 7 2v3h3v7l-12 7-7 4-10 8-7 6-10 13-2 5h-2l-2 6-4 9-3 16v25l4 17 1 5h-3l-9-3-10-2-11-5-10-7-8-4 1 7-1 2-4 2h-6v4l-9-3-9-6-3 13-3 5-4-1-3-7-3-28-4-18-2-22-1-18v-6l-1 2h-2v22h-1l-1-7-1-14v133l-4 1-3-17-4-24-1-5-2 10-4-2-8-19-4-9-4-8h-4l-5-5-4-6v-4h-2l-1-5-4-2-4-4h-2l-4 8h-7l-1 2-3-27v-22l1-9 2 3 2 8 3 2 2-10h3l6 10 5 11 6 18 7 14-6-16v-3l-2-1-5-25-2-8-1-8v-12l-4-9-2-6h-2l-4-13v-5l-5-1-2 12-1 36-1 1-3 15-2 12v17l-2 4-8 1-9-1-7-3-5-9-2-18-1-42 1-27 1-12 4-20 1-7 7-16 5-6 2-1 31-1 12-14 8-7z" fill="#8DC3D6"/>
<path transform="translate(730,683)" d="m0 0h6l3 2v4l-11 5-11 2h-4v2l-9 5-7 2-4 4-19-1-9 4h-3l-2 4-5 2-10 1-8 4-13 3-11 2-16 5-14 7-1 2h5l1 2-4 1v2l-7 1-4-2h-5l-5 6-8 4-6 5-1 6 6 5-3 3h-2l1 4-4 2 2 5 2 1-1 7 2 4h3l3 7 1 6 9 3 8 4 8 5 10 1v3l-5 3-7 1-4-2-1-2-8 2h-8l1 5 6 9 7 8v2l4 2 8 7 2 1v2l4 1 13 8 5 5 4 1 1-4 4-4 8 6 14 7 11 3 17 1v1l-14 1 1 4 4 4v2h16l15 3 4 2v2l8 2 9 4 9 3 10 4 14 3 9 3 4-1h4l10 4 17 4 1 1 9 1v2l4 1v2h34l6 3 9-3 2-1 16-2 11-4 1-2h5l1-2 7-2 1 1 1-2h5l10-4 8-4 13-5 15-7 30-13h2v-2l11-4 5-1 10-1 5-5 3-1 8 2h9l11-3 7-3-1 4-5 3-5 1-15 6-3 6-7 4-14 7-21 10-12 5-11 5-24 9-14 6-21 7-38 7-15 3h-16l-11 1-4 1-1 2v-2h-2l1 6 5 2 20 1 24-1 8-4 4-3 16-3 17-1 2 1v2l14-3 16-8 7-2 1-3h6l11-4 6-2 6-4 12-2v2l-25 11-30 12-30 10-17 4-20 3-12 1h-38l-25-3-30-7-39-12-36-12-41-14-29-11-41-16-21-10-12-8-10-8-11-11-10-14-8-16-5-18v-23l3-12 8-16 11-13 7-6 14-9 16-7 87-25 49-15 20-6 2 1 1 3h6z" fill="#03060F"/>
<path transform="translate(1227,637)" d="m0 0 2 2 5 18 5 43 1 14 1 27v46l-2 20-1 20-2 4-2 20-4 10-6 3-5 8-3 5-5 4-1 2h-2l-2 4-3 3h-2v2l-8 6-9 4-11 7-4 1v2l-14 6-11 4-9 2-7 5-5 3-8 6-5 1v2l-6 3-10 4-9 2-14 5-10 3-11 1-9 1-6 2-24 11-25 11-32 13-20 7-25 7-23 4-20 2-27 1-29-2-26-4-25-6-34-10-62-20-48-17-27-10-35-14-26-11-15-8-14-10-13-12-7-8-7-10-9-17 1-2 3 3 3 1 4 4 1 3 7 5 5 5 10 9 13 9 13 8 16 8 33 13 29 12 30 11 21 7 43 15 44 14 40 10 24 4 26 2h15l28-2 34-5 25-7 29-11 26-11 28-13 19-8 17-9 9-4 17-9 30-14 9-4 11-3 11-2 15-5 5-4 11-9 9-13 8-14 6-16 5-21 1-9v-22l-4-20-6-16-2-5 3 1-4-7-2-7-1-1 1-13 2-7 5-5h3l4 9 2 14 1 10h2l2-10 1-6h2l-1-5 2-4h2l-2-39 3-7 8-2 1 3 1 23v12h4l2-13 2-12 1-12-1-17z" fill="#8D6F94"/>
<path transform="translate(537,367)" d="m0 0h3v2l6-1 6 8v2l4 2-1 3 12 4 3 2v3h-2v2h2l3 5h-2l1 2v6l-6 9-12 9-2 2-1 6 4-1 1 1 1 7h3l1 3 6 2 5-1 1-7 2-2v-3l-2-2 3-2h4v2l4 2 8 10v7l-9 2v2l-3 3v2l2 2v6l5 2 4-1 2 1v-2l4-1 1-2 3 2 3 10 1 7 4 1v2l4 1 3 4 4 1v-4h2v2l4 2 3 2 1-2 7 6 3 2h5 4l1-5 5 3 16 2 7 1h5l3 3 6-1h7l4 1-1-6-2-5 2-2 4 1 6 5 3 1v2l4 2 11 6h8l8-4 2-2h5l-1 3 4-1 16 3 6 3 4 3 17 5 4 2 5 2v2h-11v2l7 2-2 2-7 1 2 2 7 2-4 2 2 2 3 2-1 1-7 1 1 1 7 3-3 2-3 1-7-2h-12l-8-5-7-1-2 4h-8l2 4 4 1 5 3 4 1v2l12 3 14 5 2 1v2l4 1 5 4-2 5-4 1-12-5-9-5-10-2h-6l-15-7-5-2-9-5-4-4-12-4h-3l1 7 5 3 9 6 12 6 3 3v2l-9 1-3 2-17 1-12-6-14-1-8-5-6-4-7-3-13-6-16-2-12-3-6-5-4-2 1-1-4-3-4 1-3 3-9 2h-7l-2-1 1-4 10-7h2l-1-2h-4l-1-6-4 2h-13l-1 6h-7l-5-3-3-8 1-8-5 1-4 3-8 2-1 3-6-1-2-2-1-9 3-6-8-3-5-2-1-1v-9l-3-6-1-1-7-1-3-4-1-7 7-13v-5l-9-1-5-1-4-5-7-3-8-4-5-4-2-10h-4l-1-2-2-1 11-11 14-11 13-10 17-12z" fill="#DCB5E2"/>
<path transform="translate(718,994)" d="m0 0 7 1 34 10 25 6 26 4 12 1-4 1v2l3-1v2h2v2l11 2v3l-2 2v2l-4 2-5 12 2 1-5 12-2 3-1 11-2 4-3 9-3 7h-2v7l-4 2-1 5h-2l-3 14-4 1-1 4h-2l-4 21-2 24h3v4l3 3-1 2 3 1v3l7-1v2l2 1v2h3v2l4 2v2l4 2-15 10-8 4-9 4-7 1v2l17 2v1h-22l-37-3-38-6-26-6-2-1v-2l-7-1-7-2v-2l12 2 18 4 9 1v-2l13-9 5-8h4l-1-4 2-3v-2h-2v-14h-2l1-10 2-9v-13l3-3-1-6 3-1v-23l-2-9 1-5 1-10h3l3-27-2-20v-13l1-3-3-1 3-1v-3h-2l2-5-4-1z" fill="#4F89A2"/>
<path transform="translate(659,555)" d="m0 0h11l9 4 8 6 4 2 14 1 6 4 6 5 16 4h7l6-4 10-1-1-4-2-1v-2l-3-1 1-2 9 1 8 4 15 3 12 4 3 3 1 4 6 4v4l-3 1 15 5 1 3-4 3-3-1-9 1-5 10-1 3-11 3-8 4 6 1 1 3 3 1 7-1 4 2-1 4-2 3-5 1h15l5 2v-2l6-1 9 1v1l-32 5-24 6-36 11-53 17-24 7h-8l-10-2v-2l-7-3h-12l-3-3-3-9-3-2-1-8 2-5-4-2 2-12-6 1 1-5 3-7-5-1 1-6 2-3h2l2-4 7-1 3-4 2-8 2-12 1-2h6l5-8 3-1 3-5 1-5 4-4 7 2v2l4 2 5 1 1-3-6-8v-2h2z" fill="#CAACD6"/>
<path transform="translate(427,584)" d="m0 0 4 3-1 8 2 5 2 12 7-2h13l2 1 3 5 6 2 11 7 15 11 9 6 3 3v2l5 2 5 4 11 6v6l-2 10 1 6h-2l-2 5v5l-5 7-4 7-5 6 5 2-1 2-6 2-10-2v-2l-4 1-4-2-2-3-6 2-4 2h-13l-3 3-3 1-3 4-2-3-4 1-1 3v8l-4 11-2 11-4 2-7-1-7 6-2 3-9-3h-13l2 6 5 2 14 4h12l8 2 2 3-7 6-17 3-8-2-4-3h-12l-8-8h-2l-1 2-2-2v-8l-3-1-1-8-2-3v-15l-1-3v-39l-3-9-1-6v-7l-2-8-1-17 3 4 1 4h3l-1-9-2-12-2-8 2 1v3l3-1 4 2 2-5h6l2-4 5-1 9 2 1 2 10-18 10-16z" fill="#A9C1D0"/>
<path transform="translate(755,297)" d="m0 0h54l24 2 39 6 30 7 26 8 28 10 29 13 19 10 19 11 9 6-4 1-17-9-11-6-14-8-22-9-15-7-27-9-9-2-13-4-14-3-18-3-22-3-8-2-38-3-28-1h-10l-32 2-25 3-18 3-27 7-40 13-12 5-12 6h14l6 7 7 1h27l6 4-2 6h3l-1 3h-2l-1 6 3 4 1 6 1-3v-5l9-7 9-3 5 2 18-8h6l1 5v2l3 1-1 5-13 9-5 3-4 6-6 5-3-1-1-6 3-5 5-4 1-3-7 1-6 7-5 14-2 2h-6l-5 5-8 17-3 4-1 6-4 1-2-3-1-10h-5l-2 4v12l4 8-1 4h-3l-3-7-4-6-6-1 3 8 4 2 1 11v3h11l4 4 1 3 1-1 1-7h2l4 12 7 3-3-9-4-8 3-1 9 2 10 2 4 6 5 2h3l-1-4-5-8-1-6 1-7-4-2-9-4-1-12 1-3 9-2 5-2v-6l3-10h11l2 1 5 16v7l-2 7v7l1 4h7l7-1 7 3 7 2 3 2v2l4 2 3 3 7-1 3-10 4-8-1-4-7 1-5-1-10 3-7 2-4-1 18-7 12-2 2-1 7-21 5-8 7-6 2 1-8 8-5 9-2 7v10l6 2 5 5-1 5-4 2-2 4-8 5v11l-5 14-1 1-9-1-6-4-1-7 2-2-1-5-4-2v3h-4v-3h-2v-3l-5 1 1-4-5-2-1 5-1 2h-4l1 7-2 2-6 1-3-5 1-9 1-3-5 5-1 5h-6l5 5 5 7 3-3 1 2 9 2 5-5 6 1 2 2-1 1 2 1v2h2v2l-3 1-14-2-6 3v5h2l1 3 4 3-1 3-5-1-4-4v-2l-7-2-10-6-3-1 5 9v4l4 2 4 4-1 3-5-2-6-4-4-5v-2l-4-1 3 5 4 4v2l4 2 8 5v4l-5-2v-2l-6-1-3-3h2l-4-4-5-2-3-3v-6-4l-5-8-2 2 1 8v12l4 2 4 3 1 8h-11l-4-3-1 4-4 2-3-1-4-1-6-4v-2h-4l-4-2-3-2v-2h-2v4l-5-1-3-4-3-1v-2l-4-1-2-7-2-6v-4h-4l-4 1v2l-7 1-5-5-1-5-1-3 2-3h2v-2l5-2h4l-2-9-8-9-2-1v-2l-5 2 1 5-1 2h-2l-1 7-6 2-6-2-1-3-3-1-1-7h-4v-6l9-8 7-5 4-7v-8-2l-1-3h-2v-2h2v-3l-10-3-5-3-1-4-5-5-3-4v-2l-6 1-1-3 17-10 24-13 26-12 24-9 25-8 33-8 22-4 29-4z" fill="#FED3FF"/>
<path transform="translate(972,989)" d="m0 0h3l3 5 9 1-1 3 17 1v2l-12 1-5 3-4 4-12 5 2 2-7 3-5 4-9 9h-4l1 2 4 2-7 2-12 6-3 1-1 3-7 6v11l-4 9-8 14-5 2-3 5-6 5h-2l-2 4-5 3-3 6h-4l-1 9-6 16-5 8-3 7-4 13-3 10-2 3h-7l-6 5-12 2-4 4-4 1-9 2-4 1-2-1v-2l-5-1v-2l-3-1 1-2-3-1h-2-5v-4l-2-1v-3l-3-2 1-4h-3l-1-4 3-26 3-13 1-2h2l1-4 3-1 4-14h2l-1-3 3-4h3v-7h2l1-4 3-7 2-10h1l1-10 4-7 3-8-1-3 4-10 2-2h3l-1-3 3-1v-3h-7l-4-2v-2l-5-1v-2h30l29-2 27-4 24-6 21-7z" fill="#5B7A85"/>
<path transform="translate(497,779)" d="m0 0h1l-1 9-1 5v23l5 18 8 16 8 11 9 10 10 9 15 10 21 10 41 16 38 14 52 18 35 11 28 8 22 5 25 3h38l19-2 22-4 21-6 25-9 38-16 33-15 25-12 7-4 8-2 7-1 16-8 12-7 19-10 9-6 4-3h2v-2l5-4 2-3h2l2-5 7-6-2 9-1 3h-2l-1 4-8 11-7 8h-2l-2 4-9 7-13 10-20 13-15 9-36 18-10 4-16 8-11 5-34 14-22 7-25 7-29 5-29 2h-16l-28-2-25-4-13-2-11-2-24-7-37-12-31-11-14-5-13-4-30-11-29-12-12-5-4-4-16-8-9-6v-2h-2v-2l-4-2-8-7-5-9v-2h-2l-9-15v-2l-2-1-5-10-1-8-3-7-2-13v-20l1-9 2-1 3-10z" fill="#5AB4E8"/>
<path transform="translate(1218,605)" d="m0 0 5 2 6 7-1 6h2v2l4 2 8 9 5 11v3l2 1 2 6 5 11 4 11 1 9h2v4h2l2 6 1 5h2l4 5v2l4 1 1 3 3 1 5 5 10 8 4 13 4-1v-18l-1-17 8 5 7 3 6 2 7 2 4 6 1 16v16l-2 25-5 26-5 17-7 17-6 10-6 7-10 6-12 5-10 3-17 12-16 7-11 2-4-2 6-22 7-38 3-26 4-54v-17l-1-19-3-23-6-22-6-19-6-20-6-19z" fill="#8E7095"/>
<path transform="translate(529,1007)" d="m0 0 4 2 4 4 6-2h6l1 9 7-2h10l12 4h6l1-5 5-1 2 1v7l3-2-1-6 4 1 1 4v4l1-3v-5l5 2 2 18 2 7 6 40 2 10v9l-1 9 1 5v6h2v-2l3-1 2 7 4 1 1 7v2l5 1 2 5 1 16-1 11h-2l-5 10-5 4-9-1-13-5-9-3 1 1 8 4-3 1-25-12-21-11-23-14-14-10-17-12-5-6h3l12 9 7 5 5-1-2-10 8 2v-4h5v-6l5-1v-8l1-4v-11l-4-1-4-12-1-8h-3l-2-10h-4l-1-14 1-4-5 2-2-3v-4l4-3v-5h2l-1-12v-3-2z" fill="#5DB2C7"/>
<path transform="translate(834,638)" d="m0 0h51l26 3 29 6 31 9 67 22 44 14 37 12 24 8 12 5 5 2 3 3 8 6 6 5 4 5v3h2l6 12 5 16 3 16v22l-2 14-6 22-7 16-9 14-8 10-9 7-7 5-16 5-11 2-13 4-15 7-42 21-19 9-15 7-33 15-26 11-24 9-16 5-14 4-34 5-28 2h-15l-26-2-29-5-12-3-1-2 13 2 25 4 28 2h19l26-2 29-5 35-10 20-7 26-11 16-7 16-8 20-9 19-10 14-8 23-15 10-8 13-10 7-8 9-11 3-6h2l2-11-14 16-3 1v2l-13 9-16 8-15 9-20 10h-6l-5 1 4-3 29-16 18-12 12-11 7-8 9-14 7-15 4-14 2-9 1-9v-14l-2-16-5-15-7-12-9-10-4-5 9 3 6 4v2l4 2 7 8 5 7 1-4-3-4v-3h-2l-3-5-3-3-2-4-6-5-3-2-3-7-18-7-5-5-10-4-31-10-9-3-17-7-11-3-9-3-22-7-18-6-24-7-17-4-34-5-22-1h-32l-19 2-18 2 1-2 16-3z" fill="#4197B8"/>
<path transform="translate(243,653)" d="m0 0 1 3-4 20-1 12-1 31 1 38 2 18 4 7v2l5 1 8 2h8l3-1 1-6v-15l3-14 2-12 1-1 1-36 2-12 4-1v2h2l3 12 1 6h2l6 12 1 3v13l2 13 2 8 3 16 8 20 1 7-2-3-9-20-6-18-7-13-3-3-3 10-4-2-2-8-1 6v22l3 25 7-1 4-8 5 2 5 5 1 5h2l3 7 4 5v2l6-1 7 14 4 10 6 14 3 2 1-10 2-1 3 16 2 14 2 10v7l3-1v-136l2-1 1 18 1 7 1 33 1 24v37l-3 35v12l-6-1-8 2h-11l-12-4-9-7-8-10-3-2-18 1-13-2-6-5-11-23-9-24-6-21-5-25-3-28-1-20 2-28 3-19 8-30z" fill="#65C0D9"/>
<path transform="translate(320,600)" d="m0 0h13l11 4v8l-2 8-2 24-4 23-4 27-3 22-3 9-4 10-3 7-1 7 1 7 5 30-3 6-4-2-3 7-2-3-5-13v-3l-2-1-5-25-2-8-1-8v-12l-4-9-2-6h-2l-4-13v-5l-5-1-2 12-1 36-1 1-3 15-2 12v17l-2 4-8 1-9-1-7-3-5-9-2-18-1-42 1-27 1-12 4-20 1-7 7-16 5-6 2-1 31-1 12-14 8-7z" fill="#C4BED0"/>
<path transform="translate(1124,1055)" d="m0 0h5l1 3-4 7-34 34-8 7-17 14-18 13-24 16-24 14-25 13-28 12-36 12-27 7-31 6-23 3-25 2h-27l-9-1 3-1v-2l15-5 4-3 12-6 4-4 5-3 1-1 9-2 5-2 3-3 9-1 5-2 4-4h10v2l2 2-1 1 7 2v2l7 1 3 1 7-1 7-6 3-1 7-7 5-2 12-12 7-1 2-5 4-3 3-1 1-2h2l1-4 6-8 4-6 5-1 1-7 2-3 5-1 2-4 5-2 2-3 5-3 2-3 8 1 1-3 7-2 9-1 5-5 5-1 15-2h10l5-4 11-4 16-3 10-3 3 1v1l14-5 11-7 15-10z" fill="#49606C"/>
<path transform="translate(646,761)" d="m0 0h16l15 4 10 5 11 9 9 10 6 10 5 13 2 12v11l-3 14-4 10-9 12-9 8-10 6-13 4h-20l-16-5-10-6-10-9-8-9-8-16-3-12v-21l3-11 7-14 11-12 10-7 13-5z" fill="#73F7FD"/>
<path transform="translate(462,857)" d="m0 0 7 4 4 4 1 3 7 5 5 5 10 9 13 9 13 8 16 8 33 13 29 12 30 11 21 7 43 15 44 14 40 10 24 4 26 2h15l28-2 34-5 25-7 29-11 26-11 28-13 19-8 17-9 9-4 17-9 30-14 9-4 11-3 11-2 14-4-2 4-8 7-17 10-17 9-14 9-18 10-16 8-25 12-42 19-37 15-20 7-25 7-23 4-20 2-27 1-29-2-26-4-25-6-34-10-62-20-48-17-27-10-35-14-26-11-15-8-14-10-13-12-7-8-7-10-9-17z" fill="#9693CE"/>
<path transform="translate(1032,746)" d="m0 0h14l11 4 9 6 8 9 8 15 4 14 1 6v18l-4 17-8 16-8 11-7 7-10 7-10 5-9 2h-9l-13-4-10-7-6-7-6-9-5-15-1-5v-26l4-17 8-17 4-6h2l2-5 8-7 3-1v-2h3v-2l10-5z" fill="#6EECFB"/>
<path transform="translate(1029,702)" d="m0 0 8 1 3-1 4 7 6 1 8-2v-2l12 3 30 10 10 6 11 11 8 13 5 13 2 9 1 11v14l-2 14-4 15-7 16-8 13-8 10-10 10-14 10-21 12-24 13-15 8-28 13-9 4-10 1-8 3-3 3-14 4-6 1h-2l-3 3-21 10-10 2h-4v-2l-19 1-17 3-6 5-5 2-26 1-18-1-6-3v-6l10-2 14-1h10l26-5 27-5 21-7 32-13 16-6 10-5 11-5 26-12 5-4 3-1 3-6 9-3 7-4 6-1 3-2 2-4 7-4 8-3 5-5 7-4 4-2 2-4 8-11 5-9 3-10 3-11 4-6 1-5-3-12v-15l-3-8-7-10-4-7-3-5-5-5-7-6v-2l-4-2-9-4-15-5h-7l-5-5v-3l5-1v-3l-11-2-1-3z" fill="#030D17"/>
<path transform="translate(618,963)" d="m0 0 8 1 2 2 16 8 5 5v2h6l1 5h5l2 2 5 1 2 5h5l1 6-1 1v8l2 1 1-3v11l-1 5 4-1 1-9 2 2v13l2 7h5v8l-1 9 4 6 1 5 4 1 1 5-2 3-1 5h-3v-3h-2v9l-3 1v-2l-3 1v8l-4 2-1 10h-1v-5h-2l-2 7-4 1-1 5-1-4-3 1-2 10h-3l-2 3h-2v-2h-2l-1 10-1 2-3-1v9h-5v3h-2v-4h-4l-1 2v-2l-4 1-5-2-2-9-4-1-1-6h-3v2h-2l-2-13 1-7v-12l-2-7-6-40-3-12-1-14 3-1v-9l1-9 4-2-3-16-1-3h4l1-4h3l3-2v-2l3-1-5-5z" fill="#5DA3B4"/>
<path transform="translate(537,367)" d="m0 0h3v2l6-1 6 8v2l4 2-1 3 12 4 3 2v3h-2v2h2l3 5h-2l1 2v6l-6 9-12 9-2 2-1 6 4-1 1 1 1 7h3l1 3 6 2 5-1 1-7 2-2v-3l-2-2 3-2h4v2l4 2 8 10v7l-9 2v2l-3 3v2l2 2v6l5 2 4-1 2 1v-2l4-1 1-2 3 2 3 10 1 7 4 1v2l4 1 2 4-7-1h-11l-3-1v-2h-2v-2l-7-1-14-6 3 5 8 5 10 7 9 3 5 4-1 12-3 2h-3l-2 4-3 3h-13l-1 6h-7l-5-3-3-8 1-8-5 1-4 3-8 2-1 3-6-1-2-2-1-9 3-6-8-3-5-2-1-1v-9l-3-6-1-1-7-1-3-4-1-7 7-13v-5l-9-1-5-1-4-5-7-3-8-4-5-4-2-10h-4l-1-2-2-1 11-11 14-11 13-10 17-12z" fill="#DDC3E4"/>
<path transform="translate(837,640)" d="m0 0h32l22 1 34 5 25 6 29 9 14 5 21 6 8 3 17 6 10 4 10 3 24 8 14 6 1 3 18 7 4 8 6 4v2l4 2 1 5 3 1 2 5h2l4 7-1 6-4-4-8-11-5-4v-2l-5-2-8-4-7-3-15-6-157-50-24-6-18-3-21-2h-36l-34 4-22 5-27 8-53 17-69 21-71 20-15 6-14 8-10 8-8 9-9 14-3 2 2-9 5-7 3-8 3-7 6-7 6-3 6-7 9-4 8-4 22-7 4-1-12 1 4-2 53-15 39-12 43-13 56-18 29-8 14-3 6 1 20-3z" fill="#59B1E4"/>
<path transform="translate(475,417)" d="m0 0 5 3 2 10 4 2 4 3 8 4 5 2 4 5h9l4 2 1 5-7 13 2 9 1 1 7 1 4 5 1 4v8l9 3 5 3-3 6 1 9 7 3 1-4 10-3 4-3 4 1-1 8 3 8 4 2 7 1 1-6 2-1h11l4-1 1 6 6-1-1 3-9 6-3 1-1 4h9l9-2 4-4 4 1 5 4 7 6 12 3 16 2 11 5v1h-9v2h-2l4 6 3 4-2 4-5-1-4-3v-2l-7-1-4 5-1 5-3 4-4 2-3 7-7-1-1 11-2 5-2 8-3 3h-6l-4-3-6-2 2-3-7-2 2-4-4-1-7-9-5-2 2-8-7-1-1-4-7-2-3-9-4-4v-2l-2-2v-2l-6-3-6-7-9-6-9-7-5-5-2-8-1-3-5-1-4-5-4-10-5-5-5-2-1-5v-8l-2-5h-9l-8-5-10-7-10-4-4-5v-10l-4 1-12 12-2-1 7-7 7-8 20-20z" fill="#D0BFD8"/>
<path transform="translate(1234,661)" d="m0 0 2 3 5 16 3 15 2 16 1 19v17l-4 54-3 26-7 38-6 23-3 1-3 10-5 13-1-4v-3l-1 2h-2l-2 4-9 16-9 8-9 5-9 2-13 7-5 4-11 5-14 5-11 3-5 2-4 6-14 5-12 5-12 1-8 3-13 4-7 4-5 2-4 1h-8l-4 1-11-1-4 2-19-2h-5l2-4h-9l-3-3-1-4 30-13 29-13 6-3h8l3-1 11-1 27-9 8-2 12-5h2v-2l8-4 7-6 8-4 2-2 12-3 18-7 4-1v-2l11-6 7-5 9-4 3-3h2v-2l6-5 1-2h2l2-4 4-2 1-4 4-5 3-5 5-2 4-10 2-20 2-4 1-24 2-16v-46l-1-27-3-31z" fill="#836887"/>
<path transform="translate(570,610)" d="m0 0 9 2v2l4 1 1-2 9 2 5 3 6 1-2 7 5 1-3 11 5-1 1 5-2 4 1 5 2 1-1 10 1 3 4 3 3 9 1 1h12l9 4 2 2 11 2-4 2-32 10-57 16-36 10-8 3h-3l-1-5-3-1v-2l-5-2 1-2 4-1-5-3 6-7 6-11 2-4 1-5 3-4-1-7 3-16 4 2 7 4 2-2 1 1h8l-4-2-5-5v-7h2v-4l-4-1v-6l-7-3 1-4 3-5 6-7 6 2 2 2 2-6 6 1 2-6 5 2 2 1v-3l7 1z" fill="#B5B6CC"/>
<path transform="translate(833,654)" d="m0 0h36l27 3 25 5 33 10 103 33 1 3-3 2-9 1-4-4-3-4-5 1-5-1v3l9 1 2 1v3l-5 1 2 5 3 2h7l20 7 8 5v2l4 2 8 7 3 6 4 5 3 6 6 8 2 8v16l3 11-3 7-3 5-3 14-8 16-8 10-5 5-5 4h-3l-2 4-10 5v-3l8-7 5-6 6-11 5-10 4-17v-18l-3-14-5-12-6-10-7-8-10-6-9-3-14-1 4-3 7-6-2-5 1-4v-2h-14l-9-5-2-4-5-1-5 5-7-1-8-3-7-1-6-3-3 1-1 2-5-1-2 1-1-6-4-1-12-4-5-6v-2l-5-1-1-6-42-13-15-3-25-3h-38l-17 1-5 3-6-1-6-5 3-3 8-3 13-3 9-1 7-1 16-1 6-1-15-1z" fill="#04060F"/>
<path transform="translate(755,297)" d="m0 0h54l24 2 39 6 30 7 26 8 28 10 29 13 19 10 19 11 9 6-4 1-17-9-11-6-14-8-22-9-15-7-27-9-9-2-13-4-14-3-18-3-22-3-8-2-38-3-28-1h-10l-32 2-25 3-18 3-27 7-40 13-12 5-12 6h14l6 7 7 1h27l6 4-2 6h3l-1 3-20 8-16 8-8 6-4 2v2l-3 2 2 10-1 2 5-1 3-1 2-4 3 1-2 4-2 9-7 2-8 5-3 7v3l11-1 3 4v2h2l4 9 2 2-1 4h-7l-5-2-2 8-2 3-1 5h2l1 4-3 4v-4h-4l-4 1v2l-7 1-5-5-1-5-1-3 2-3h2v-2l5-2h4l-2-9-8-9-2-1v-2l-5 2 1 5-1 2h-2l-1 7-6 2-6-2-1-3-3-1-1-7h-4v-6l9-8 7-5 4-7v-8-2l-1-3h-2v-2h2v-3l-10-3-5-3-1-4-5-5-3-4v-2l-6 1-1-3 17-10 24-13 26-12 24-9 25-8 33-8 22-4 29-4z" fill="#F0C8F7"/>
<path transform="translate(1184,969)" d="m0 0h5l-2 8-9 17-12 19-9 13-9 12-8 10-9 11-2 1v-5l-7 2-15 10-11 7-14 5-2-1-1-1-14 4-16 3-10 5-2 2h-13l-12 2h-4l-4 5-2 1-11 1-5 2-1 2-4 1v-2l-3-1 5-5-4-1 10-14v-2-3l7-4v-2l6-3 1-2-2-2 4-2 2-2-1-2 3-1-2-2 1-3h3l1-5 3-3h7l2-1 16-2 7-3 15-3 2-2 10-1 15-5 13-5 3-3 11-5 4-2 3-3 9-4 5-3 16-9 11-3 9-8 1-2h2v-2h2l2-4 2-3h2z" fill="#62626F"/>
<path transform="translate(410,620)" d="m0 0h1l2 6 3 3 1 7 2-1 7 8 6 9 1 6 2 1v7l2 6 1 7h2l-1 7-3 11-1 10 1 7 5 4 1 5-3 14v10l-2 6-3 1-7-1-7 6-2 3-9-3h-13l2 6 5 2 14 4h12l8 2 2 3-7 6-17 3-8-2-4-3h-12l-8-8h-2l-1 2-2-2v-8l-3-1-1-8-2-3v-15l-1-3v-39l-3-9-1-6v-7l-2-8-1-17 3 4 1 4h3l-1-14 2 2 4 24 4 27v3h2l2-17 5-20 12-31 5-8h4z" fill="#A8CBDF"/>
<path transform="translate(815,1071)" d="m0 0h10l1 5 4 1 1 5 5 1-1 4 7-1 1 2-1 7 7-1-1 4h5v3l9 2v4l7-1 2 1-1 4 6 2 2 4h1l-1 7-5 14-5 8-3 7-4 13-3 10-2 3h-7l-6 5-12 2-4 4-4 1-9 2-4 1-2-1v-2l-5-1v-2l-3-1 1-2-3-1h-2-5v-4l-2-1v-3l-3-2 1-4h-3l-1-4 3-26 3-13 1-2h2l1-4 3-1 4-14h2l-1-3 3-4h3v-7h2l1-4 3-7 1-5z" fill="#4E7C8B"/>
<path transform="translate(431,463)" d="m0 0 2 2v15l1 7 4 8 5 3 1 5 1 4 5 9 10 10-2 4v6l-2 4h-2l-1 6-2 4v4l16 2 8 8 8 5 10 5 4 3v2l4 2 3 2v2l4 2 8 6 6 4 12 4 17 4 12 5v4l-7-2-1 6-7-2-1 7-7-4-2-1-2 4-4 1-9-4-16-8-13-10-4-4-5-3-1-3-4-2-6-4-17-4-12-3h-6l-8 5h-2l1-6 2-4v-3h-3l-3-3v-2h-2l-2-3-2-9-6-1v2l2 1-4 1-1-4 1-4-6-1-4 1-1 4-2-3v-3h-4v2l-5 1 2-6-2-2-5 4h-2l-3 10-3 7-2 1-7 18-2 5-3 19-2 2v-11l3-14 6-17 1-9-4 8-2-1 9-19 13-23 14-22 12-16 8-10 5-5z" fill="#BABECC"/>
<path transform="translate(343,605)" d="m0 0 4 1 2 10 1 31 2 103-1 5v133l-4 1-3-17-4-24-1-5-2 10-4-2-8-19-4-9-4-8h-4l-5-5-4-6v-4h-2l-1-5-4-2-4-4h-2l-4 8h-7l-1 2-3-27v-22l1-9 2 3 2 8 3 2 2-10h3l6 10 5 11 6 18 7 15 4-9 1 2h2l3-5-4-25-1-10-1-5 3-10 3-5 4-10 2-13 5-33 2-15 3-16 2-24 2-9z" fill="#8DC3D6"/>
<path transform="translate(694,440)" d="m0 0 1 2-2 7 1 5 2 3 6-2-1-7 3-1 2 1 2-7 5 1 2 2h-3l1 2h4v3h2v3h4v-3l4 1 2 2-2 10v3l5 2 4 2h6l6-16 2 1-1 6-3 8 3-1 3-5 5-3 9-1 5-2 4-1 2-4h17l9 6 12 1 7 3-1 2 2 1 10 1-3 2-7 1-2 1 5 4-5 2v2l-7 4v3h6l-1 4-6 5-5 3 6 2-3 3-3 1-15-3-9 1-4 1-5-2-3 2-13-1h-9l-4 4-8 4h-8l-11-6-4-3v-2l-4-1-6-5-4 1 2 5 1 6-4 1-1-1h-9l-4 1-4-3h-9l-2-1-9-1 4-1-2-6v-2l-7-5-1-9v-8l-1-4 3-2 7 10-1 9 3 3 7 3 2 5 6 2v2l5 2v-4l-5-2-7-5-2-4-5-4v-3l4 1 1 4 3 1v2l5 2 4 3h2l-2-4-5-4-3-8-2-2v-3l5 1 11 6 4 2 4 5 5 1-1-3-3-2v-3h-2l-1-5 7-4 17 2v-2h-2v-2l-3-1v-2l-6-1-5 5-9-2-2-2-2 3-6-8-3-2v-2l-2-1 2-1h5v-5z" fill="#EDB5F2"/>
<path transform="translate(568,712)" d="m0 0h6l-2 2-23 7-9 4-8 4-3 1-3 4h-2l-2 4-5 1-1 3-5 5-2 6-4 9-4 6-2 8 2-1-2 6h-3l-2 2-3 12-2-1-1 10v21l3 13 3 10 1 5 10 18 4 6v2h2l6 11 8 7 3 2v2h2v2l5 2 9 6 14 7 1 2-5-1-18-7-16-8-17-11-14-11-8-7v-2l-4-2-4-3v-3l-4-2v-2l-4-1-4-5-6-18-2-10v-25l3-16 7-15h2l1-5 7-9 7-8 14-11 10-6 14-7 24-7 14-4z" fill="#4F89A2"/>
<path transform="translate(616,612)" d="m0 0 11 3h11l14 3-2 4 18 4-1 3 8 3 13 3 8 3v2h-2v2l7 1 1 3 11 1 8 3 6 1v2h2l-2 5-7 3-1 2h8l-3 2-44 14-24 7h-8l-10-2v-2l-7-3h-12l-3-3-3-9-3-2-1-8 2-5-4-2 2-12-6 1 1-5 3-7-5-1 1-6 2-3h2l2-4z" fill="#BAA8CD"/>
<path transform="translate(1035,757)" d="m0 0h10l13 4 10 9 2 4h2v2h2l3 3-3-7 1-3 3 3 3 6 4 17 1 8v10l-2 14-4-5-4 1-3 1-4 8h-3l-1 3h-8l-8 2-5 1-6 2-4-1-12 2-9-3-2-1-2-6-4-2-1-5-1-4 1-4-1-4 1-2h-2v-12l2-10 3-13 7-10 3-4 13-3z" fill="#8CF0FC"/>
<path transform="translate(1124,707)" d="m0 0 7 1 17 6 8 4 4 1 3 3 8 6 6 5 4 5v3h2l6 12 5 16 3 16v22l-2 14-6 22-4 10-4 4h-3v2l-13 5-3 2h-3v2l-11 6-18 11-3 2-3-1 9-11 9-15 5-13 2-6 2-7h2l2-10 2-8 2-37-1-10-2-10-7-21-2-4v-4h-2l-3-7-8-9-3-3-7-3z" fill="#336083"/>
<path transform="translate(447,445)" d="m0 0 5 1 1 12 3 4-4-1h-1v2l11 3v3l4 5v2h-2l2 4-1 5 5 6 2 10 7 9 2 2v4l5 2 3 4-2 1 10 6-3 1-2-1v3l8 5 1 3 2 1h-2v2l3-1v3l5 1 3 4-3 1 1 6h3v-5h1v7h2l1 3 3 1-1 7 5 3 7 4 3 5v2l6 1 2 5 5 3 1 4 9 1 1 4h5v2l7 1-1 4 8-1h2l-1 4-8-2v2l-7-1-12-5-20-5-11-4-10-8-6-4-5-5-9-7-12-6-10-9-1-1-16-2-1-5 4-10h2l1-10 2-4-11-11-5-9v-6l-7-7-3-6-1-7v-15h-2l-6 7-2-1 11-13 2-3 5-3z" fill="#C4BFD0"/>
<path transform="translate(1229,636)" d="m0 0 2 3 5 12 6 21 3 10 3 16 2 7 3 18 2 19 2 16 1 19 2 18v19l3 10 4 3v2l4 2 9 7 4 8v2l4-4 6-14 6-19 3-13h1v12h12l8-2 3 3-2 9-7 17-6 10-6 7-10 6-12 5-10 3-17 12-16 7-11 2-4-2 6-22 7-38 3-26 4-54v-17l-1-19-3-23-6-22-6-19-1-4z" fill="#4A4C57"/>
<path transform="translate(540,1099)" d="m0 0 5 1 5 2 3-1 1 2-1 4 4 2 1-4v4l12 2 4 1h9l6 3 15 5v2h7l1 2v9h7l2 13 5 1 2 7v4l5-1v9 3l2 1-5 10-5 4-9-1-13-5-9-3 1 1 8 4-3 1-25-12-21-11-23-14-14-10-17-12-5-6h3l12 9 7 5 5-1-2-10 8 2v-4h5v-6l5-1v-8z" fill="#49B1CA"/>
<path transform="translate(462,857)" d="m0 0 7 4 4 4 1 3 7 5 5 5 10 9 13 9 13 8 16 8 33 13 29 12 30 11 21 7 43 15 44 14v2l10 2 9 3 32 8 1 4-2 2 8 4 11 2 16 3v1h-12l-27-3-25-6-34-10-62-20-48-17-27-10-35-14-26-11-15-8-14-10-13-12-7-8-7-10-9-17z" fill="#ACA6D9"/>
<path transform="translate(712,499)" d="m0 0 10 4 8 4h8l8-4 2-2h5l-1 3 4-1 16 3 6 3 4 3 17 5 4 2 5 2v2h-11v2l7 2-2 2-7 1 2 2 7 2-4 2 2 2 3 2-1 1-7 1 1 1 7 3-3 2-3 1-7-2h-12l-8-5-7-1-2 4h-8l2 4 4 1 5 3 4 1v2l12 3 14 5 2 1v2l4 1 5 4-2 5-4 1-12-5-9-5-10-2h-6l-15-7-5-2-9-5-4-4-12-4h-3l1 7 5 3 9 6 12 6 3 3v2l-9 1-3 2-17 1-10-5 1-2 7 2 12-1 2-3h2l-6-6h-5l-4-3v-2h-2l-5-5v-2l-4-2-8-5-9-3-7-10 3-3 6 1 3 1 5 1 7 3 12 1-5-5-5-4-7-1v-5l4-1 3 1v2l4 2 11 6-4-7-8-5v-2h-8-3l-7-3 2-1 1-3h9l1-2 6 1z" fill="#DDAEE2"/>
<path transform="translate(952,1035)" d="m0 0 18 4 13 4h7l3 2h13l6 2-1 5h-3v2l2 1 1 2-8 8v3l-5 3h-2l1 3-8 4 2 3-10 13v2l3 1-4 5-5 5-5 3-3 4-11 1-2-2 2-2-15-2-1-7h-6l-3-2h-7l-2-1 2-5 1-3-6-2-10 1 2-5 6-11 4-9v-11l4-2 2-4 8-6 10-5z" fill="#5C6C77"/>
<path transform="translate(1224,622)" d="m0 0 4 2 4 6 6 10 6 16 4 11 4 13 4 11 8 31 5 18 4 8 7 21 6 14 5 7 1 3 3 3 7 1 2-10 1-9 2-6h1l1 8 4 2 18 2 1 1v9l-4 17h-2v-2l-8 1-7 1-7-1-1-7-7 24-6 15-4 6h-2l-5-10-12-9-5-6-3-9v-20l-2-20-1-19-4-30-2-12-2-11-3-12-2-12-6-19-5-16-3-4-2-2-3-10z" fill="#665C6F"/>
<path transform="translate(320,600)" d="m0 0h13l11 4v8l-2 8-2 24-4 23-4 27-3 22-3 9-4 10-3 7-2 4-5-7v-2l-4 1-3-10v-20l-6-8 1-3 5-2-1-7-2-8-4-7-1-7 1-14 1-8v-11l1-7-1-1v-7l1-3-2-1 9-9 9-4z" fill="#E9A9EC"/>
<path transform="translate(497,779)" d="m0 0h1l-1 9-1 5v23l5 18 8 16 8 11 9 10 10 9 15 10 17 8-4 1-14-4-15-9-11-9-11-11-6-9v-2l-2 1 12 22 5 6v2l11 9 10 9 6 3v2l5 2 21 12 10 5 16 6 8 4 32 12 39 12 36 12 28 7 22 5 13 2 3 1 17 2 16 1 14-1h11l22-2 10-1 29-4 15-3 8-3 17-5 11-5 15-6 29-12 9-4 5-3 10-3 9-5 6-4 14-6 11-7 7-4 16-10 12-10h2v-2l5-2v-2h2v-2h2v-3l-6 2-16 9-11 4-3 2-3-1 17-10 19-10 9-6 4-3h2v-2l5-4 2-3h2l2-5 7-6-2 9-1 3h-2l-1 4-8 11-7 8h-2l-2 4-9 7-13 10-20 13-15 9-36 18-10 4-16 8-11 5-34 14-22 7-25 7-29 5-29 2h-16l-28-2-25-4-13-2-11-2-24-7-37-12-31-11-14-5-13-4-30-11-29-12-12-5-4-4-16-8-9-6v-2h-2v-2l-4-2-8-7-5-9v-2h-2l-9-15v-2l-2-1-5-10-1-8-3-7-2-13v-20l1-9 2-1 3-10z" fill="#5BA7D5"/>
<path transform="translate(1214,904)" d="m0 0 2 1-2 13-11 27-14 29-1-3 1-2h-5v2h-2l-2 4-2 3h-2v2h-2l-2 4-8 7-10 2 1-2-9 3-8 2-5 2-6 2h-10l-10 1-4 1-3-1h-5v-2l-7 2-13 1 2-2-7-1 3-2h-14l2-1h-4-5-3l-3-2 8-4 17-5 6-1 10-2 10-4 14-5 4-6 11-4 13-4 13-5 11-7 13-7 9-2 11-7 6-7 8-14 2-3h2z" fill="#7B6581"/>
<path transform="translate(699,354)" d="m0 0h6l1 5v2l3 1-1 5-13 9-5 3-4 6-6 5-3-1-1-6 3-5 5-4 1-3-7 1-6 7-5 14-2 2h-6l-5 5-8 17-3 4-1 6-4 1-2-3-1-10h-5l-2 4v12l4 8-1 4h-3l-3-7-4-6-6-1 3 8 4 2 1 11v3h11l4 4 1 3 1-1 1-7 2 1-1 7v9l-1 10-3-1-3-5-1-8-11-8 2 5 3 3 2 6v6l3 4 7 2 2 4v6l-3 1-7-3-10-15v-9l-8-5-5-5-3-1 2 5v7l-1 3-4-1-1-4 1-5h-2v-5l3-5 2-7 5 2h7l-1-4-2-2-2-8h-2l-3-5h-6l-3 1-2-1-1-4 4-7 11-6h3l3-11 1-2-3 1-4 4-6 1 1-6-2-5 2-4h2v-2l10-8 15-8 19-7 2 1-1 4 3 4 1 6 1-3v-5l9-7 9-3 5 2z" fill="#F8E2FD"/>
<path transform="translate(895,848)" d="m0 0 8 1 5 3 3 6v11l-2 13-4 9-6 10-4 5-7 6-10 6-12 4-6 1h-10l-13-3-13-7-11-11-6-12-2-7v-16l3-6 4-2v-2l2-1h11l6 5 2 4 1 12 5 8 8 6 4 1h11l9-4 5-5 3-4 2-6 2-14 4-6z" fill="#77FEFE"/>
<path transform="translate(837,640)" d="m0 0h32l22 1 34 5 25 6 29 9 14 5 21 6 8 3 17 6 10 4 10 3 24 8 14 6 1 3 18 7 4 8 6 4v2l4 2 1 5 3 1 2 5h2l4 7-1 6-4-4-8-11-5-4v-2l-5-2-8-4-7-3-2-2h4v-2l-5-1-10-5-4-4v-2l-4-2v-2l-6-1-5-3-12-3-10-4-21-8v-2l-9-1-5-3-6-1-5-2-15-3-15-4-10-4-28-8-21-3-27-3h-12l-15-1h-42l-8 1-14 1-13 4-12 4-19 2-19 6-15 5-33 10-20 6-21 7-42 13-14 4-6 3-10 4-1 3-15 6v3l-15 6-14 8-10 8-8 9-9 14-3 2 2-9 5-7 3-8 3-7 6-7 6-3 6-7 9-4 8-4 22-7 4-1-12 1 4-2 53-15 39-12 43-13 56-18 29-8 14-3 6 1 20-3z" fill="#5BA7D6"/>
<path transform="translate(712,605)" d="m0 0 5 3 5 1 12 6h6l3 2 10 2 10 4 4 3 13-1 4 2v2l3 1 7-1 4 2-1 4-2 3-5 1h15l5 2v-2l6-1 9 1v1l-32 5-24 6-36 11-12 2-2-1 1-3 7-3 2-4h-2v-2l-9-1-5-2-11-2-2-2-6-2v-2h2l-1-2-7-2-19-5-3-2 2-3h-6l-12-3-1-2 7-5 7 1 2-2h7l5-1 4-2 16 1 1-4 1-2 10 1z" fill="#C4A3D1"/>
<path transform="translate(574,539)" d="m0 0h5l4 3h5l4 3 3 1h9l9-3 2-2h6l5 3 12 2 11 2 8 1 11 5v1h-9v2h-2l4 6 3 4-2 4-5-1-4-3v-2l-7-1-4 5-1 5-3 4-4 2-3 7-7-1-1 11-2 5-2 8-3 3h-6l-4-3-6-2 2-3-7-2 2-4-4-1-7-9-5-2 2-8-7-1-1-4-7-2-3-9-4-4v-2l-2-2v-2l-6-3-5-5 1-2 8 3 6 2 1-3 9 4-1-6z" fill="#CAB5D8"/>
<path transform="translate(524,657)" d="m0 0 4 2 7 4 2-2 1 1h8l3-1 8 4 4 3 15 5 9 2 2 3v3l9 2 15 5-2 5-5 4-1 5-65 18-20 6-5 1-1-5-3-1v-2l-5-2 1-2 4-1-5-3 6-7 6-11 2-4 1-5 3-4-1-7z" fill="#A7B7CB"/>
<path transform="translate(637,1138)" d="m0 0h7v4h8l1 2 5-1v2l3 1-1-3h4v5l2 1v3h11l2 1 17 1 7 1 1-1h6l-1 7h2l1 9-1 5h2l1 3-2 4v2h-4l-2 5-4 5-10 7h-2v2h-9l-30-7v2l7 1 7 2v2l-16-4-27-9-19-8v-2l-6-2-4-2 1-2 22 8 9 1 5-4 3-6 2-3h2v-18l-1-9-1-4z" fill="#4197B8"/>
<path transform="translate(751,566)" d="m0 0 9 1 8 4 15 3 12 4 3 3 1 4 6 4v4l-3 1 15 5 1 3-4 3-3-1-9 1-5 10-1 3-11 3-6 3h-3l-1 2-8 1-5-4-13-4-8-2-3-1-7-1-12-6-5-2v-4l4-4-7-2-1-1v-7l-3-3 7-2v-2l-3-1 5-2 19 2 7-1 4-3 10-1-1-4-2-1v-2l-3-1z" fill="#CFA4D6"/>
<path transform="translate(646,761)" d="m0 0h16l15 4 8 4-2 1-5-2h-6l4 2v1l-9 2-3 8-15 6-9 5-10 6-6 5-6 9-5 14-1 8 4 16 6 9 7 6v2l6 2 9 4 6 2h11l17-3 8-4 7-2 2-1 2 6 4-1 3-3h2l-2 4-9 8-10 6-13 4h-20l-16-5-10-6-10-9-8-9-8-16-3-12v-21l3-11 7-14 11-12 10-7 13-5z" fill="#6FEFFD"/>
<path transform="translate(1124,1055)" d="m0 0h5l1 3-4 7-34 34-8 7-17 14-18 13-24 16-24 14-25 13-28 12-9-1 1-2 8-4 16-12 12-7 11-8 7-5h2v-2l8-6 14-11 3-3h2l1-4 14-10 6-4h2v-2l9-7 4-5 13-10 8-4 10-6 9-4 11-7z" fill="#4B4D58"/>
<path transform="translate(1184,969)" d="m0 0h5l-2 8-9 17-12 19-9 13-9 12-8 10-9 11-2 1v-5l-7 2-15 10-11 7-14 5-2-1 9-7 9-6v-2l-3-2 5-3-2-2 2-2-2-2 3-3-2-4 1-2h-3v-2l3-2h-5l4-5-10 3v-2l-12 3 5-5h-8l2-2 19-6 8-4 5-3 12-6 3-3 9-4 5-3 16-9 11-3 9-8 1-2h2v-2h2l2-4 2-3h2z" fill="#665C6F"/>
<path transform="translate(718,994)" d="m0 0 7 1 34 10 25 6 26 4 12 1-4 1v2l3-1v2h2v2l11 2v3l-2 2v2l-6 1-1 3-8 1-5 1-15-2-1 7h-5l-2-4-5 2-3-1-2-3h-10v2l-4 3h-3l1 5-12 1-4-3-9 2h-4v5l-10 4h-2l1-13-2-15v-15l1-3-3-1 3-1v-3h-2l2-5-4-1z" fill="#6489A3"/>
<path transform="translate(481,708)" d="m0 0 4 2 1 2 7 1v2l10 1 7 2v3h3v7l-12 7-7 4-10 8-7 6-10 13-2 5h-2l-1 2-7 5v-3h-2l-1 2-4 1v-2h-4l-1-2-15-2h-11l-14-4-5-3-3-4 1-3h13l9 3 4-5 5-4 8 1 2-1 3-15 3-7v-9l2-3 5-1 2 2 2-3 5-3 1-1h13z" fill="#92BED1"/>
<path transform="translate(1227,637)" d="m0 0 2 2 2 8 5 44-1 15v15l-2 12-4 17-5 9-3-1-2-10-4 1-3 4-3 9-3 13-5 8-3 8h-1l-5-26-6-16-2-5 3 1-4-7-2-7-1-1 1-13 2-7 5-5h3l4 9 2 14 1 10h2l2-10 1-6h2l-1-5 2-4h2l-2-39 3-7 8-2 1 3 1 23v12h4l2-13 2-12 1-12-1-17z" fill="#B884BE"/>
<path transform="translate(243,653)" d="m0 0 1 3-4 20-1 12-1 31 1 38 2 18 4 7v2l5 1 8 2h8l3-1 1-6v-15l3-14 2-12 1-1 1-36 2-12 4-1v2h2l3 12 1 6h2l6 12 1 3v13l2 13 2 8 3 16 8 20 1 7-2-3-9-20-6-18-7-13-3-3-3 10-4-2-2-8-1 6v24l-2 20-3 7-9 5-8 1-11 1-4 2v2h-2l-4-11-3-16-2-15-1-2-2 2-1-2-1-20 2-28 3-19 8-30z" fill="#93BFD2"/>
<path transform="translate(711,348)" d="m0 0h6v4l-4 2-1 5 9-2 11-3 4 1-4 3-23 10-8 7-9 6-4 5v3l5-1 6-3 1 1v5l-4 5v13l-2-4-2-9h-11l-2-1-2 13-1 3-7 4-7 1v8l1 6 8 3 5 5-1 6 2 7 5 7-1 4-7-1-4-4-1-3-10-2-9-2h-2l6 12v5l-5-1-3-2-3-8v-4h-2v7l-2 2-4-6-1-1h-9l-3-3v-7l-1-5-4-2-2-5v-3h6l6 8 2 6 2-1-1-5-3-6v-12l5-5 4 1 1 10 1 2h4v-6l6-10 7-14 4-3h6l4-10 4-8 7-6 5 1-1 4-3 3h-2l-2 7v4l4-1 6-5 3-5 11-7 7-5v-4l-3-3v-4h-6l-18 8-6-2-10 4-6 5v8h-3l-2-7-2-3 1-4 1-2 29-10 2 1 1 1z" fill="#FBF5FD"/>
<path transform="translate(1231,651)" d="m0 0 2 2 2 12 4 35 1 14 1 28-3 41-1 2-2 12-3 10-3 8-5 8-9 4-6 7-4 2-2 4-4 1-2 5h-2l-2 4-3 4-4 1v-7l5-15 4-17 2-25 5-12 4-6 3-14 4-9 3-3 3 1 3 10 2 1 2-5 3-9 3-12 2-16v-17l1-10-4-34z" fill="#A174A6"/>
<path transform="translate(1216,601)" d="m0 0 8 2 8 8v2h2v4h-3l6 7 3 3v2h2l4 8 1 3h3l8 14 5 1 5 5 4 6 5 6 5 3h10l4 4 2-2 1 3 2-2 2-1 2-4 6 4 9 1 7 3 5 9 3 21v7l-5-4-10-2-4-3-7-3-4-3 1 16v18l-2 1-2-1-1 2-3-6-2-8-9-7-5-4-5-6-3-1-1-4-3-1v-2h-2l-2-5v-3l-2-1 1-2h-2v-4h-2l-3-12-8-19-7-17-6-9-7-6v-2h-2v-6l-5-6-6-3z" fill="#B985BF"/>
<path transform="translate(1125,929)" d="m0 0h2l-2 4-8 9h-2l-2 4-8 4 2 2-10 5h-2l-1 5-6 3-9 4-5 2-3 3-4 3-4 2-4 4-6 5-2 4-6 4-5 2-4 1h-8l-4 1-11-1-4 2-19-2h-5l2-4h-9l-3-3-1-4 30-13 29-13 6-3h8l3-1 11-1 27-9 8-2 12-5h2v-2l8-4z" fill="#82708D"/>
<path transform="translate(250,635)" d="m0 0 1 3-1 7 8 1 14 1 9 3 1-3-1 13-3 21-1 4-2 22-2 9-7 12-2 4h-2l-2 4h-8l-8-4 1-7v-4l-6-5v-25l1-18 3-17 1-7z" fill="#E8A9EB"/>
<path transform="translate(657,790)" d="m0 0h6v2h2v2h2l3 4v2l3 1 5 8v2l4 2 15 8v2h2v2l5 1 4 3 1 1 1-2 5 1 2 4-1 7 2 1-1 4-7-1-4-2 2-1-2-2-1 3-3 3h-3l-1 3h-6l-1 4h-4l-1 4-4-1v2l-5-1-5-4-15-6-9-6-3-9-5-10-5-4-2-3v-4h2l-1-3 6-5h2l1-3 7-5h5z" fill="#78FEFE"/>
<path transform="translate(347,615)" d="m0 0 2 2 2 72 1 61-1 5v133l-4 1-3-17-4-24v-6h-2l-1-22-1-7v-21l1-7 1-18 1-31v-30l2-33 4-47 1-9z" fill="#7B6581"/>
<path transform="translate(1095,698)" d="m0 0 8 1 20 6 1 3 7 2 1 3 4 2 2 4 3 1 4 7v3h2l6 17 3 11 2 5 2 12-1 28-1 15-3 9-2 7-4 8-3 10-4 9-10 17-7 8 5-2 13-8 12-7 4-1v-2l11-5 5-2h3v-2h3l2-4 1 2-10 17-9 11-9 7-7 5-16 5-11 2-13 4-15 7-10 5-13 6-7 1 1-3 23-13 19-14 11-9 11-13 4-6 3-8 4-9 5-12 8-28 1-19v-9l-5-22-5-17-10-19-2-4-5-2-3-2v-2h-2l-3-5-24-10z" fill="#4F89A2"/>
<path transform="translate(849,1178)" d="m0 0h10v2l2 2-1 1 7 2v2l7 1 3 1h7l2 5-3 3 3 4 8-1 21-6 21-7h7l2 2-36 12-33 8-36 6-34 3h-27l-9-1 3-1v-2l15-5 4-3 12-6 4-4 5-3 1-1 9-2 5-2 3-3 9-1 5-2z" fill="#336183"/>
<path transform="translate(501,734)" d="m0 0 2 1-7 6-4 6-6 10-3 7-4 9-3 12-2 16 1 23 3 12 1 10 4 10 5 8v4h2l9 13 8 9-1 3-10-5-12-11-3-2v-2l-4-2-4-3v-3l-4-2v-2l-4-1-4-5-6-18-2-10v-25l3-16 7-15h2l1-5 7-9 7-8 14-11z" fill="#326082"/>
<path transform="translate(972,989)" d="m0 0h3l3 5 9 1-1 3 17 1v2l-12 1-5 3-4 4-12 5 2 2-7 3-5 4-9 9h-4v2l-9-1-8-2-15-1-10-2-6 1-9-5v-2h-7l-9-3v-2h-6v-1l31-4 25-6 19-6 21-8z" fill="#5C6D78"/>
<path transform="translate(1e3 785)" d="m0 0 1 4 4 2 15 10 5 3 8 5 10 1v1l5 1 1 1 5-2 4 1 9-3 1 4 5-1 1 1 1 9-4 1-3 1-4 8h-3l-1 3h-8l-8 2-5 1-6 2-4-1-12 2-9-3-2-1-2-6-4-2-1-5-1-4 1-4-1-4 1-2h-2v-12z" fill="#74F9FF"/>
<path transform="translate(239,676)" d="m0 0h1v40l6 5 1 3-1 5-2 1v2l5 1v2h11l4-4 9-18 2-15 1-13h3l-1 17-1 36-1 1-3 15-2 12v17l-2 4-8 1-9-1-7-3-5-9-2-18-1-42 1-27z" fill="#C3A4D1"/>
<path transform="translate(699,354)" d="m0 0h6l1 5v2l3 1-1 5-13 9-5 3-4 6-6 5-3-1-1-6 3-5 5-4 1-3-7 1-6 7-5 14-2 2h-6l-5 5-8 17-3 4-1 6-4 1-2-3-1-10h-5l-5 10-6-1-1-6 6-5 3-5 5-2 2-3 1-10 1-2 1-11 4-11-3-1 14-5 2 1-1 4 3 4 1 6 1-3v-5l9-7 9-3 5 2z" fill="#FDD3FE"/>
<path transform="translate(560,382)" d="m0 0 7 1 4 2 9 2v2l10 1 1 1v7l-8 12-3 5-1 5 1 3 3-1 2 1 1-2 3-1 2 1v-2l4 1 1 7 12-1 3 4v2h2l4 9 2 2-1 4h-7l-5-2-2 8-2 3-1 5h2l1 4-3 4v-4h-4l-4 1v2l-7 1-5-5-1-5-1-3 2-3h2v-2l5-2h4l-2-9-8-9-2-1v-2l-5 2 1 5-1 2h-2l-1 7-6 2-6-2-1-3-3-1-1-7h-4v-6l9-8 7-5 4-7v-8-2l-1-3h-2v-2h2v-3l-10-3-3-2z" fill="#EBC0EF"/>
<path transform="translate(755,297)" d="m0 0h54l24 2 39 6 30 7 26 8 28 10 29 13 19 10 19 11 9 6-4 1-17-9-11-6-14-8-22-9-15-7-27-9-9-2-13-4-14-3-18-3-22-3-8-2-38-3-28-1h-10l-32 2-25 3-18 3-27 7-40 13-12 5-52 26-10 3-2 1 1-3 24-13 15-8 29-13 35-12 40-10 22-4 29-4z" fill="#FDD4FE"/>
<path transform="translate(671,767)" d="m0 0h7l10 4 10 8 9 10 6 10 4 10 2 16v8l-1 7h-2v-8l-2-3-4-1-1 3-7-5-3-1v-2h-2v-2l-6-2-9-5-5-5-5-8-5-5v-2h-2v-2h-2v-2l-2-1 1-4 3-11 2-2 8-2-4-2z" fill="#8CEFFB"/>
<path transform="translate(1224,622)" d="m0 0 4 2 4 6 6 10 6 16 4 11 4 13 4 11 8 31 5 18 4 8 7 21 6 14 5 7 1 3 3 3 7 1 2-10 1-9 2-6h1l1 8 4 2 18 2 1 1v9l-4 17h-2v-2l-8 1-7 1-7-1-1-7-5 18h-2v-2l-3-1-5-8-3-3-6-11-4-13-4-9-5-19-4-16-3-17-4-16-6-25-9-24-5-15-7-13v-2h-2l-1 3z" fill="#726B7E"/>
<path transform="translate(343,605)" d="m0 0 4 1 1 2v7l-1 2-4 41-2 27-1 32v27l-1 29-1 16-1 3-1 15-2-4-5-20-2 6-4-3-4-25-1-10-1-5 3-10 3-5 4-10 2-13 5-33 2-15 3-16 2-24 2-9z" fill="#B985BF"/>
<path transform="translate(1135,850)" d="m0 0 1 2-3 10h-2l-1 4-8 11-7 8h-2l-2 4-9 7-13 10-20 13-15 9-36 18-10 4-16 8-11 5-34 14-22 7-25 7-29 5-29 2h-16l-28-2-25-4-13-2-3-1h2v-2l8 1 9 2 24 3 22 1h11l31-3 13-1 19-4 13-2 7-1 1-3 15-4 9-3 11-5 15-6 29-12 9-4 5-3 10-3 9-5 6-4 14-6 11-7 7-4 16-10 12-10h2v-2l5-2v-2h2v-2h2v-3l-6 2-16 9-11 4-3 2-3-1 17-10 19-10 9-6 4-3h2v-2l5-4 2-3h2l2-5z" fill="#5CA8D6"/>
<path transform="translate(1041,445)" d="m0 0 4 2 14 12 11 9 4 5 4 2h2l1-4 11 12 13 13 8 7 7 7 7 8 13 16 13 19v8h-3l-4-9-7-9 10 23-1 3-3-2-4-7-3-5-4-10-4-3 1 5 3 6 1 9 6 10 10 24v3l-3-1-12-23-4-7-1-6-4-7-3-3-2-6-3-3-7-12-4-7v-2h-2l-7-11v-2h-2l-2-4-3-3-10-13-11-13-16-17-8-8-6-5z" fill="#F8E2FC"/>
<path transform="translate(1234,625)" d="m0 0 5 4 6 10 2 5v3l2 1 2 6 5 11 4 11 1 9h2v4h2l2 6 1 5h2l4 5v2l4 1 1 3 3 1 5 5 10 8 4 13 4-1v-18l-1-17 8 5 7 3 6 2 7 2 4 6 1 16v16h-1l-2-14-1-2-12-2-8-3-5-6-1 33-1 7-4 2v2l-3 1-3-7-3-12-9-15-4-5-6-10v-3h-2l-3-7-4-8-12-36-6-16-5-11-6-11z" fill="#A274A7"/>
<path transform="translate(1223,596)" d="m0 0h12l12 4 16 9 10 8 14 2 12 5 10 9 7 10 9 20 2 7h-2l-5-11v-4l-5-1-4-3-1-2-8 1-7-3-2-3-8-4-3-4v-2h-2l2 5 7 14 3 9-1 4-7-16v-2h-2l-5-10-9-11-10-7-6-1 2 9 6 12-1 3-6-7-1-4h-2l3 5-1 4-3-4v-2l-3-1-3-12-3-7-2-9-5-2-6-5-4-2z" fill="#EBBFEF"/>
<path transform="translate(349,604)" d="m0 0h1l3 35 2 39 1 14 1 32 1 8h2 3l3 13 4 1 5 9 1 8 2 1 1 7 1 4-1 6h-2l-1 5-3 3-2 3-2 2-3 7-1 9-2 1-3-13-2-22-1-18v-6l-1 2h-2v22h-1l-1-7-1-22-2-100-1-31-1-10z" fill="#93BED1"/>
<path transform="translate(657,462)" d="m0 0 4 4 4 6-1 9 3 3 7 3 2 5 6 2v2l5 2v-4l-5-2-7-5-2-4-5-4v-3l4 1 1 4 3 1v2l5 2 4 3h2l-2-4-5-4-3-8-2-2v-3l5 1 11 6 4 2 4 5 5 1-1-3-3-2v-3h-2l-1-5 7-4 14 2 3 9 3 2 1 6 4 2 1 5 2 2-3 1-3-3-1-2-6-1 1 6 4 1 2 4 4 2 2 4-5 1-12-8v-2l-4-1-6-5-4 1 2 5 1 6-4 1-1-1h-9l-4 1-4-3h-9l-2-1-9-1 4-1-2-6v-2l-7-5-1-9v-8l-1-4z" fill="#EBBFEF"/>
<path transform="translate(742,658)" d="m0 0 7 1v2l-30 10-33 10-20 6-21 7-42 13-14 4-6 3-10 4-1 3-15 6v3l-15 6-14 8-10 8-8 9-9 14-3 2 2-9 5-7 3-8 3-7 6-7 6-3 6-7 9-4 8-4 22-7 4-1-12 1 4-2 53-15 39-12 43-13z" fill="#5DA9D4"/>
<path transform="translate(711,348)" d="m0 0h6v4l-4 2-1 5 9-2 11-3 4 1-4 3-23 10-8 7-9 6-4 5v3l5-1 6-3 1 1v5l-4 5v13l-2-4-2-9h-11l-2-1-2 13-1 3-7 4-7 1-2 1 2-10-8 7-4 3h-2l-2 7-4 8-5-2-1-5 4 2h2v-6l6-10 7-14 4-3h6l4-10 4-8 7-6 5 1-1 4-3 3h-2l-2 7v4l4-1 6-5 3-5 11-7 7-5v-4l-3-3v-4h-6l-18 8-6-2-10 4-6 5v8h-3l-2-7-2-3 1-4 1-2 29-10 2 1 1 1z" fill="#F8E4FD"/>
<path transform="translate(568,712)" d="m0 0h6l-2 2-23 7-9 4-8 4-3 1-3 4h-2l-2 4-5 1-1 3-5 5-2 6-4 9-4 6-2 8 2-1-2 6h-3l-2 2-3 12-2-1-1 10v21l3 13 3 10 1 5 10 18 4 6v2h2l6 11 8 7 3 2v2h2v2l5 2 9 6 14 7 1 2-5-1-18-7-8-7-11-9-10-13-6-9-6-12-5-8-3-8-3-10-2-7-1-15 1-20 2-6 2-9 5-11 8-17 2-4h2l2-5 4-1 2-4 6-5h2v-2l11-5 9-3-11 2-7 1 3-2 32-9z" fill="#4297B8"/>
<path transform="translate(1307,724)" d="m0 0 6 5v2l12 3 8 1 2 3 1 7v23l-3 21-2-4-18-2-5-3-2-4z" fill="#82718D"/>
<path transform="translate(351,751)" d="m0 0h1l1 18 1 7 1 33 1 24v37l-3 35v12l-6-1-3 1h-9v-10l-1-10-1-23-1-1v-14l1-8 4 2 1-10 2-1 3 16 2 14 2 10v7l3-1v-136z" fill="#5689A2"/>
<path transform="translate(1249,640)" d="m0 0 4 5 5 9 5 1 5 5 4 6 5 6 5 3h10l4 4 2-2 1 3 2-2 2-1 2-4 6 4 9 1 7 3 5 9 2 16-2-1-1-3-18-8-3-2v-2l-5-2-1-2-3-1 2 14v6l-2-1-3-9-1 9-7-4-12-6-2-4-4-2-6-7-6-15-6-12v-2l-3-1-3-7z" fill="#C5A4D1"/>
<path transform="translate(462,857)" d="m0 0 7 4 4 4 1 3 7 5 5 5 10 9 13 9 13 8 16 8 33 13 29 12 30 11 21 7 43 15 37 12-4 1-41-13-41-14-22-8-17-6-12-5-17-6-29-9-11-2-11-1-8-4-9-1-11-8-13-12-7-8-7-10-9-17z" fill="#9593CE"/>
<path transform="translate(1115,744)" d="m0 0h3l3 5 4-1 3-1 6 15 2 9 1 11v14l-2 14-4 15-7 16-8 13-6 8-2-1 1-7 1-2 1-13 4-4 3-2 1-11h-1v-6h1l1-7-1-4 3-17-1-5 3-8v-6l-3-2-4-13-2-2z" fill="#03060F"/>
<path transform="translate(1279,633)" d="m0 0 3 1 3 4v2l5 2 4 2 3 3 1 2h12l7 5 3 1 5 13v2h2l4 16-1 2-4-7-8-2-7-1-6-4-4 6-5 1-2-4-3-1h-9l-8-6-5-6-1-3-7-6-4-1-5-9 1-2 4 5v2l6-1 8 5 3 3v2l3 1 3 3 4 2v-2l7 1-3-11-7-14-2-3z" fill="#CFA4D6"/>
<path transform="translate(299,795)" d="m0 0h2l1 5h2l3 7 4 5v2l6-1 7 14 4 10 5 12v24l1 1 1 23 1 18 3 3h-11l-5-3 1-11-2-20-2-18v-7l-2-11-2-10-8-17-5-13-4-11z" fill="#66AECA"/>
<path transform="translate(346,646)" d="m0 0h1l2 36-1 8v44l2-1 1 3 1 14-1 5v133l-4 1-3-17-5-31 3-11h1l2 13v-22l-1-26v-121z" fill="#655C6E"/>
<path transform="translate(297,698)" d="m0 0h2l4 6 3 5v19l3 8 3 1 6 11 6 39-4 5-3-2-3 7-2-3-5-13v-3l-2-1-5-25-2-8-1-8z" fill="#C4A4D0"/>
<path transform="translate(371,555)" d="m0 0h1l-1 10-6 17-3 14v13l-2 5-3 1 1 10h-2v7h2l1 3v21l1 12v16l1 7 2 28v13h-2l-1 2-3-2-1-8-1-32-2-36-3-42-1-12 7-20 8-17 3-1 2-6z" fill="#AAB7CB"/>
<path transform="translate(1109,724)" d="m0 0 4 2 10 8v2h2v2l4 2 6 8 5 10 6 18v35l-4 13-3 5-2 8-5 2-2 5-7 11-3 1-7 8-6 3-7 7-2-1 12-12 9-13 8-15 5-14 3-14 1-9v-14l-2-16-5-15-7-12-9-10z" fill="#326083"/>
<path transform="translate(280,689)" d="m0 0h3v2h2l3 12 1 6h2l6 12 1 3v13l2 13 2 8 3 16 8 20 1 7-2-3-9-20-6-18-7-13-3-3-3 10-4-2-2-8-1 6h-1l1-48 2-12z" fill="#A9C0CF"/>
<path transform="translate(1070,848)" d="m0 0h3l-1 8-12 13-10 7-10 5-9 2h-9l-13-4-10-7-6-7 3-5 3-1 7 4 5 2h20l20-6 12-3h2v-2h2l2-5z" fill="#63BCD6"/>
<path transform="translate(250,635)" d="m0 0 1 3-1 7 8 1 14 1 9 3 1-3-1 13-3 15-5 1-4-1-4 2-4-2h-7l-7 1v2l-6 1v-11l2-16 6-15z" fill="#FBF6FD"/>
<path transform="translate(355,752)" d="m0 0h2l1 8 1 20 2 18 5 24 1 13v10l-4 7-2 9-3 35-1 7v11l4 20 2 8-3-3-2-7h-2l-5-13 1-3v-11l3-35v-45l-1-21v-50z" fill="#66AECA"/>
<path transform="translate(1061,923)" d="m0 0 8 1-3 3-14 7-19 9-15 7-33 15-26 11-24 9-16 5-14 4-34 5-28 2h-15l-26-2-29-5-12-3-1-2 13 2 25 4 28 2h19l26-2 29-5 35-10 20-7 26-11 16-7 16-8 20-9 19-10z" fill="#5C98B4"/>
<path transform="translate(646,761)" d="m0 0h16l15 4 8 4-2 1-5-2h-6l1 2-16 2-16 3-12 5-9 5h-2l-1 3h-2l-2 4-2 3-4 13-4 15-1 12v7l1 6-3-4-3-12v-21l3-11 7-14 11-12 10-7 13-5z" fill="#60B6D1"/>
<path transform="translate(238,739)" d="m0 0 2 2v5l2 1 2 2 1 2 7-1 2 2 6 2 5 2 4 2 2 2v23l-2 4-8 1-9-1-7-3-5-9-2-18z" fill="#ADA8D9"/>
<path transform="translate(1224,620)" d="m0 0 5 1 6 9 8 16 4 11 6 15 5 18 4 12 3 10 5 13 7 16 3 4 4 11 5 12 4 7v2h2l3 3v2l4 1 2 1 1-2-1 12-2 4-7-1-1-3-3-1-3-6-6-10-8-22-5-14-2-5-7-26-6-22-6-16-3-11-3-7-5-14-6-10-5-7-2-1z" fill="#82708C"/>
<path transform="translate(642,453)" d="m0 0 2 3 1 11h-2l1 4v11l6 3v7l4 1 8 4v1h-7l-4-3-1 4-4 2-3-1-4-1-6-4v-2h-4l-4-2-3-2v-2h-2v4l-5-1-3-4-3-1v-2l-4-1-2-7-1-6 5 2v-10l-1-5 4 1 4 3v2l5 2 4 3v10l8 10 2 4 9 2-2-8-2-2-6-2-3-4-1-9-3-5-2-2v-4l5 2 7 6 2 10 4 4v-19z" fill="#EFC5F4"/>
<path transform="translate(346,606)" d="m0 0 2 2v7l-1 2-4 41-2 27-1 32v27l-1 29-1 16-1 3-1 15-2-4-4-16-2-10v-10l2-13 3-16v-11l1-5 3-43 5-43 3-28z" fill="#A274A7"/>
<path transform="translate(328,780)" d="m0 0 2 3 3 14 2 6 3 18 1 22-2 10-4-2-8-19-4-9-5-11-2-8v-8l3-7 1 2h2l3-4 4 1z" fill="#9693CE"/>
<path transform="translate(806,864)" d="m0 0 2 3 3-1-1 6-1 2h-2l2 11 1 4 3 1 7 11 11 8 9 2h10l16-3 12-3h3v4l11-6 5-4 2-5 4-4 2 1-6 10-4 5-7 6-10 6-12 4-6 1h-10l-13-3-13-7-11-11-6-12-2-7v-16z" fill="#72F4FB"/>
<path transform="translate(713,365)" d="m0 0 2 1-9 8-3 13-5 17 2 9v10l-2 3v6l2 1h6l5-2 13-1 7-3 8-1 3 1 5-1 2 5-5 10-3 9-7 1-7-6-4-4-9-2-4-2-11 1-3-1-2-4v-7l2-7-1-23 4-5v-5l-8 4-4-1 1-5 9-8 5-3h2l1-3z" fill="#FBF6FD"/>
<path transform="translate(889,851)" d="m0 0 2 1-4 5 4 1-2 8-2 14-3 6-6 7-7 4h-2l-2 4-6 3-10 2-6-2-9-6-5-9v-21l-2-2-7-1-3-3v-3l-6 2-6 3 2-4 3-1v-2l2-1h11l6 5 2 4 1 12 5 8 8 6 4 1h11l9-4 5-5 3-4 2-6 2-14 4-6z" fill="#89ECF9"/>
<path transform="translate(413,487)" d="m0 0 3 1-2 9-4 8-4 9-7 10-6 7-2 6-4 6-4 2-3 10-3 7-2 1-7 18-2 5-3 19-2 2v-11l3-14 6-17 1-9-4 8-2-1 9-19 13-23 14-22 5-6z" fill="#B6B7CC"/>
<path transform="translate(1112,725)" d="m0 0 6 2 6 4v2l4 2 7 8 8 16 4 13 2 14v17l-3 17-6 18-9 15-5 6-7 6h-2v2l-11 8-5 3h-2v2l-9 5-3 3-13 8-20 10h-6l-5 1 4-3 29-16 18-12 2-2 5-2 7-7 5-2 7-8h3l2-4 5-9 5-5h2l2-11 3-5 3-10v-35l-7-21-7-11-4-5-2-1v-2h-2v-2l-4-2-7-6z" fill="#4D87A0"/>
<path transform="translate(971,399)" d="m0 0 6 1 13 5 16 10 8 6 16 9 5 5 6 4 3-1-4-5-9-5-3-2v-2l-4-2-6-5v-2l-4-2-8-7v-2l5 2 16 12 13 11 9 9 11 9 10 10 10 13v5l-3 1-5-5-11-10-11-9-7-6-7-4-12-9-7-5v-2l-5-2-15-10-26-14z" fill="#FBF1FD"/>
<path transform="translate(359,636)" d="m0 0 3 4 2 5 3 25 1 5v8l3 11 1 1v41l1 1-1 12-3-3-4-1-2-8-2-36-1-14-1-4v-21l-1-12z" fill="#A8C1D0"/>
<path transform="translate(1252,619)" d="m0 0h6l10 7 8 9 4 6 2 7h2l6 14-1 2-5-1v2l-6-2-9-10-6-3h-6l-4-6-5-3-1-3 2-3 3 5-1-5-1-3h2l5 8 2 2-2-6-5-11z" fill="#DBB5E1"/>
<path transform="translate(1151,878)" d="m0 0h7v5l-5 9-4 3-16 5-11 2-13 4-15 7-10 5-13 6-7 1 1-3 23-13 8-6 11-4 11-5 4-1v-2l9-4 12-5z" fill="#6289A3"/>
<path transform="translate(1234,661)" d="m0 0 2 3 5 16 3 15 2 16 1 19v17l-4 54-3 26-5 28h-1v-16l2-11 1-1 1-24 2-16v-46l-1-27-3-31z" fill="#7B6581"/>
<path transform="translate(1032,746)" d="m0 0h14l11 4 9 6 8 9 2 5-1 2 2 4v3l-3-1v-2h-2v-2h-2l-7-8-5-4-13-4h-10l-14 3-10 4-6 2v-2l-5 7-5 5-2 1 2-5 2-3h2l2-5 8-7 3-1v-2h3v-2l10-5z" fill="#64BDD6"/>
<path transform="translate(765,386)" d="m0 0 2 1-8 8-5 9-2 7v10l6 2 5 5-1 5-4 2-2 4-8 5-2 10-4 2-1 6-3 2-5-1-2-3-2-9-3-3-7-1-3-4v-2l-5-1-5-2-2 2-6-1-1-2h6l7-1 7 3 7 2 3 2v2l4 2 3 3 7-1 3-10 4-8-1-4-7 1-5-1-10 3-7 2-4-1 18-7 12-2 2-1 7-21 5-8z" fill="#F8E4FD"/>
<path transform="translate(306,606)" d="m0 0 1 2-1 7v9h2l9-4 7 1 6 5 1 7-11-1-4 5-5 16-8 4 2 4-2 5-3-1-1-4v-28l1-7-1-1v-7l1-3-2-1z" fill="#FED3FF"/>
<path transform="translate(1307,772)" d="m0 0h1l1 8 4 2 18 2 1 1v9l-4 17h-2v-2l-8 1-7 1-7-1-1-4v-12l2-16z" fill="#62636F"/>
<path transform="translate(278,625)" d="m0 0 10 1-2 10-3 9-2 5-12-2-16-1-4-2 1-7 2-6 4-5 2-1z" fill="#E9AAEC"/>
<path transform="translate(1099,509)" d="m0 0 5 5 4 5v2h2l4 4 9 2 4 5 4 4 6 1 5 6-1 2-2-1 8 17 2 7h-3l-8-13-4-10-4-3 1 5 3 6 1 9 6 10 10 24v3l-3-1-12-23-4-7-1-6-4-7-3-3-2-6-3-3-7-12-4-7v-2h-2l-7-11z" fill="#FDD2FE"/>
<path transform="translate(1304,702)" d="m0 0 8 5 7 3 6 2 7 2 4 6 1 16v16h-1l-2-14-1-2-12-2-8-3-5-6-1 10h-1z" fill="#A276A8"/>
<path transform="translate(349,604)" d="m0 0h1l3 35 2 39 1 14 1 32 1 13v9l-2 8h-2v22h-1l-1-7-1-22-2-100-1-31-1-10z" fill="#9693CE"/>
<path transform="translate(588,915)" d="m0 0 7 1 24 9 26 9 18 6 8 3 6 3 4 1 5 2v2l8 1 10 3 12 3v4l-16-4-5-2-1-1-21-4-33-11-12-5-9-3-11-5-16-8-1-3z" fill="#65C0D9"/>
<path transform="translate(349,733)" d="m0 0 2 3 1 14-1 5v133l-4 1-3-17-5-31 3-11h1l2 13 4 2-1-47-1-21 1-19v-24z" fill="#5F6C79"/>
<path transform="translate(694,440)" d="m0 0 1 2-2 7 1 5 2 3 6-2-1-7 3-1 2 1 2-7 5 1 2 2h-3l1 2h4v3h2v3h4v-3l4 1 2 2-2 10v3l2 1-8 2v-2h-2v-2l-3-1v-2l-6-1-5 5-9-2-2-2-2 3-6-8-3-2v-2l-2-1 2-1h5v-5z" fill="#E9A9EC"/>
<path transform="translate(243,653)" d="m0 0 1 3-4 20-1 12-1 31 1 38 2 18 4 8-4-2-3-9-4-23-3-29-2-4-2 1 2-16 8-30z" fill="#B4B9CC"/>
<path transform="translate(555,718)" d="m0 0 3 1-5 1-2 7-4 1v2l-4 1 1 4-16 9-10 8-8 9-9 14-3 2 2-9 5-7 3-8 3-7 6-7 6-3 6-7 9-4 8-4z" fill="#5AA4D1"/>
<path transform="translate(711,348)" d="m0 0h6v4l-4 2-1 5 9-2 11-3 4 1-4 3-23 10-4 2 3-4v-4l-3-3v-4h-6l-18 8-6-2-10 4-6 5v8h-3l-2-7-2-3 1-4 1-2 29-10 2 1 1 1z" fill="#F8E3FD"/>
<path transform="translate(611,1114)" d="m0 0h2l1 9h3l-1-5 2-1v6h2v-2l3-1 2 7 4 1 1 7v2l5 1 2 5 1 16-1 11-6-1 2-12-5 1-2-9-6-3-1-13h-7l-1-2z" fill="#5CA8D7"/>
<path transform="translate(1279,633)" d="m0 0 3 1 3 4v2l5 2 4 2 3 3 1 2h12l7 5 3 1 5 13v2h2l2 9-2-1-2-5-9-5-13-3-6-5v-2l-6-2-1 3-6-15-5-8z" fill="#DCB4E2"/>
<path transform="translate(276,774)" d="m0 0h1l2 18 2 33v14l-2-4-2-12v-4l-11-1-15-3-6-1v-2l-4-2 3-3 16-1 9-4 3-2 2-6z" fill="#65AEC9"/>
<path transform="translate(1183,853)" d="m0 0 1 2-10 17-9 11-9 7-2-1 3-6 1-5-7 1-11 5h-2l-1 2-8 3-7 3-3-1 5-4 6-3 13-8 12-7 4-1v-2l11-5 5-2h3v-2h3z" fill="#4E7B8A"/>
<path transform="translate(352,624)" d="m0 0 2 2 3 15v4l2 1v10l1 12v16l1 7 2 28v13h-2l-1 2-3-2-1-8-1-32-2-36-1-17z" fill="#A8B6CB"/>
<path transform="translate(1307,724)" d="m0 0 6 5v2l12 3 8 1 2 3 1 7v23h-1l-1-15h-8l-11-4-5-3-1-2-1 7h-1z" fill="#8E7095"/>
<path transform="translate(297,615)" d="m0 0h3v10l1 2-1 6v12l-2 15v9l3 8 3 5 1 9v4l-5 3h-2l-4-16-3-19v-17l2-15 3-13z" fill="#DDC3E4"/>
<path transform="translate(1016,796)" d="m0 0 4 2 9 5 9 6 10 1v1l5 1 1 1 5-2h3l-2 5-3 2h-3v2l-5 2-1 1h-9l-4 1-7-3-7-9-2-6-2-2-2-7z" fill="#78FFFF"/>
<path transform="translate(333,851)" d="m0 0 4 2 3 19 2 8 1 11 3 12v11l1 2-3 1h-9v-10l-1-10-1-23-1-1v-14z" fill="#4197B8"/>
<path transform="translate(494,796)" d="m0 0h1l1 20 5 18 8 16 8 11 9 10 10 9 15 10 17 8-4 1-14-4-15-9-11-9-11-11-8-12-7-14-2-5-1-7-1-4z" fill="#4885A0"/>
<path transform="translate(287,743)" d="m0 0 5 5 8 17 6 18 7 15 4 14-2 3-4-1-3-4-5-15-3-10-4-9-4-11-6-9-1-9z" fill="#93BFD2"/>
<path transform="translate(617,441)" d="m0 0 4 1 1 7-3 3h-9v4l10 5h2l1-3 6 10 1 9 3 4 7 2 2 4v6l-3 1-7-3-10-15v-9l-8-5-5-5-3-1 2 5v7l-1 3-4-1-1-4 1-5h-2v-5l3-5 2-7 5 2h7z" fill="#FDD3FE"/>
<path transform="translate(323,868)" d="m0 0 4 1 4 9 3 8 2 26v4l3 2h-11l-5-3 1-11-2-20z" fill="#4AB1CA"/>
<path transform="translate(611,384)" d="m0 0v3 9l6-3 6-4 2 1-3 8 5 1v5l-9 5-4 11-1 12h-2l-3-5h-6l-3 1-2-1-1-4 4-7 11-6h3l3-11 1-2-3 1-4 4-6 1 1-6-2-5 2-4h2v-2z" fill="#FED3FF"/>
<path transform="translate(560,772)" d="m0 0 19 1h13l7 4-3 3-15 1-3 7-13-1-9 3-3-2v6l-2 1v-8l1-2h2l3-11z" fill="#04060F"/>
<path transform="translate(1301,685)" d="m0 0 4 1v2l5 2 4 4 14 5 4 3 3 9v7l-5-4-10-2-4-3-7-3-5-3-2-4z" fill="#B985BF"/>
<path transform="translate(1271,775)" d="m0 0 3 4 5 12 2 7 5 9 1 9 1 10-2 4-3-2h-3l-4-4 1-2v-3l-3-4-1-5-2-9-1-11 1-3-1-5z" fill="#62626F"/>
<path transform="translate(987,933)" d="m0 0 3 1-5 7-13 6-14 6-11 4-16 6-10 4-9 2-4-1v-1l-4-1 29-10 29-12z" fill="#569EC9"/>
<path transform="translate(1308,758)" d="m0 0 2 3 1 4 13 3h6l3 2 1 3v11l-1 5-2-4-18-2-5-3-2-4v-10z" fill="#736C80"/>
<path transform="translate(890,349)" d="m0 0 7 1 24 8 25 10 22 11 18 11 19 12 1 2-5-1-13-8-28-13-7-5-12-4-17-9-27-11-7-3z" fill="#FBF2FD"/>
<path transform="translate(1301,626)" d="m0 0 7 6 7 9 8 17 4 12h-2l-5-11v-4l-5-1-4-3-1-2-8 1-7-3-2-3-8-4-1-5 20-1-3-6z" fill="#EBC1EF"/>
<path transform="translate(746,338)" d="m0 0h8l-3 2-13 3-7 4-1 4h10l-1 4h-4l-10 2-6 2h-7l1-5 4-3v-2l-9 1-23 5-1-2 1-2 17-5 38-7z" fill="#FBF3FD"/>
<path transform="translate(343,647)" d="m0 0h1v17l-2 45v85l-1 16-1 22-1 5h-1l-1-17-1-7v-21l1-7 1-18 1-31v-30l2-33z" fill="#8E7095"/>
<path transform="translate(355,752)" d="m0 0h2l1 8 1 20 1 7v69l-2-3-3-12v-16l-1-21v-50z" fill="#5CA8D6"/>
<path transform="translate(664,457)" d="m0 0 4 1-1 1h3l3 3 8 3 3 3 7 1 1-1 1-7 2-1 1 2 9 2 5-5 6 1 2 2-1 1 2 1v2h2v2l-3 1-14-2-6 3v5h2l1 3 4 3-1 3-5-1-4-4v-2l-7-2-10-6-3-1 5 9v3l-4-1-4-5-3-8-2-4-3-2z" fill="#F1C8F7"/>
<path transform="translate(903,890)" d="m0 0 2 1-6 10-4 5-7 6-10 6-12 4-6 1h-10l-13-3-6-3v-1l11-1h13l12-2h7l15-6 6-7 3-3 2-4z" fill="#6DE9F8"/>
<path transform="translate(1241,611)" d="m0 0h9l4 2 7 2 10 9 9 12 7 12 5 14-1 4-7-16v-2h-2l-5-10-9-11-10-7-6-1 2 9 6 12-1 3-6-7-12-22z" fill="#FBF0FD"/>
<path transform="translate(644,459)" d="m0 0 2 2 1 3 7 3 1-3 2 6v15l4 2 4 3 1 8-5-1-11-5-1-7-4-1-2-2v-15h2l-1-2z" fill="#FDD4FE"/>
<path transform="translate(347,615)" d="m0 0 2 2 2 72v47l-2-1v31l-2 1v-77l1-9-1-51-2 17h-1v-12l2-18z" fill="#806D89"/>
<path transform="translate(605,853)" d="m0 0 6 2 10 12 11 8 8 4 8 3 18 2 13 2-3 2-4 1h-20l-16-5-10-6-10-9-8-9-3-5z" fill="#5EB4CF"/>
<path transform="translate(295,618)" d="m0 0h2l-3 13-2 17v15l4 24 2 7v30l-2-3-3-17-3-16-2-7v-23l3-26v-5l-3 1 2-4z" fill="#D0BFD8"/>
<path transform="translate(298,731)" d="m0 0 2 4 5 13 3 5 4 18 5 17-2 8-2 1-6-16v-3l-2-1-5-25-2-8-1-8z" fill="#AEA8DA"/>
<path transform="translate(748,453)" d="m0 0 2 1-1 6-3 8 3-1 2-3h2l-2 5-2 3 3-1v2l-7 3-1 3h2l2 5-2 2-7-1-16-10-1-6-2-1 6-2 6 1 4 2h6z" fill="#EBBFEF"/>
<path transform="translate(1065,900)" d="m0 0 2 1-12 6-4 4-13 5-32 16-7 3-3-1 4-2v-2l-6 1 4-3 28-13 15-8 8-2 7-1z" fill="#57A0CA"/>
<path transform="translate(523,750)" d="m0 0 5 1 1 3-3 5-4 4-1 2h-2l-2 4-6 16-6 9-2 10h-3l-1-4 3-17 8-16 6-8 4-4z" fill="#020202"/>
<path transform="translate(745,982)" d="m0 0 9 1 12 3 13 2 3 1 17 2 16 1 14-1h11l22-2 10-1 29-4 10-2h5l-3 2-8 2-14 2-15 3-12 1-31 3h-20l-32-3-12-2-16-4-8-3z" fill="#66AECA"/>
<path transform="translate(889,851)" d="m0 0 2 1-4 5 4 1-2 8-2 14-3 6-6 7-8 4-6-1v-2h-15l-5-2 1-2 6 2h11l9-4 5-5 3-4 2-6 2-14 4-6z" fill="#69DEEF"/>
<path transform="translate(1252,643)" d="m0 0 5 5v2l6-1 8 5 3 3v2l3 1 3 3 4 2v-2h5l4 9v3l-2 1h-9l-8-6-5-6-1-3-7-6-4-1-5-9z" fill="#CFA4D6"/>
<path transform="translate(583,887)" d="m0 0h7l8 4 7 3 2 3v5l-7 1-22-4-6-3-1-5 7-1z" fill="#030E18"/>
<path transform="translate(1216,601)" d="m0 0 8 2 8 8v2h2v4h-3l6 7 3 3v2h2l4 8 6 14 4 10 4 9 4 10 5 12 4 5 4 8v2h-3l-1-4-3-1v-2h-2l-2-5v-3l-2-1 1-2h-2v-4h-2l-3-12-8-19-7-17-6-9-7-6v-2h-2v-6l-5-6-6-3z" fill="#9692CD"/>
<path transform="translate(1217,596)" d="m0 0h6l8 5 7 5 2 3 2 8 4 11 2 10-1 3-3-5-2-7h-2l-1-4-4-2-4-4v-2h3v-4h-2l-5-6-3-2v-2l-8-2-1-4z" fill="#C4A4D1"/>
<path transform="translate(1245,711)" d="m0 0h1l1 19v17l-4 54-3 26-5 28h-1v-16l2-11 3-9 3-40v-60l2-1z" fill="#635A6D"/>
<path transform="translate(621,443)" d="m0 0 2 1v9h11l4 4 1 3 1-1 1-7 2 1-1 7v9l-1 10-3-1-3-5-1-8-9-7h-2l-1 3-3 1-9-6-1-4 1-1h11z" fill="#F8E3FD"/>
<path transform="translate(684,404)" d="m0 0h6l3 3 3 5-1 8-3 8-1 1h-5l-4-3-3 1v5l-3-1 1-7 4-8v-8z" fill="#E9A9EC"/>
<path transform="translate(658,457)" d="m0 0 5 3 3 3v2h2v2h2l5 10 5 3 8 7-1 3-5-2-6-4-4-5v-2l-4-1 3 5 4 4v2l4 2 8 5v4l-5-2v-2l-6-1-3-3h2l-4-4-5-2-3-3v-6-4l-3-5z" fill="#F8E1FD"/>
<path transform="translate(316,813)" d="m0 0 3 3 5 11 4 10 5 12v10h-3l-10-13-2-12-3-15v-5z" fill="#5CA8D7"/>
<path transform="translate(1247,768)" d="m0 0h1v24l-6 42-13 52-1 2-2-1 6-22 7-38 5-41z" fill="#04060F"/>
<path transform="translate(454,828)" d="m0 0 1 2h4l3 9h2l7 16 4 6 3 6 3 2 1 3 4 3-1 3-4-3v-2l-4-2-4-3v-3l-4-2v-2l-4-1-4-5-6-18z" fill="#886F91"/>
<path transform="translate(1224,622)" d="m0 0 4 2 4 6 6 10 6 16 4 11 4 13 4 11 7 27-1 4-3-7-1-5h-2l-7-29-9-24-5-15-7-13v-2h-2l-1 3z" fill="#7A6580"/>
<path transform="translate(765,386)" d="m0 0 2 1-8 8-5 9-2 7v10l6 2 5 5-1 5-4 2-2 4-8 5-1 6h-1l-1-6 4-5 5-1 2-4v-10h-8l-3 1v2l-5 1-5-1-10 3-7 2-4-1 18-7 12-2 2-1 7-21 5-8z" fill="#FED3FF"/>
<path transform="translate(230,774)" d="m0 0 5 5 7 18 9 5 8 3 1 2-16 1-4 2v2h-2l-4-11-3-16z" fill="#8DC4D7"/>
<path transform="translate(357,613)" d="m0 0h2l8 16 3 10 2 13v5l-4-1-5-11-5-10v-3h-2v-7h2l-2-11z" fill="#CEBFD7"/>
<path transform="translate(318,622)" d="m0 0 5 1 4 4-3 3h-4l-6 12-2 8-2 1h-6l-2-3 2-11 5-5 5-7z" fill="#F8E3FD"/>
<path transform="translate(235,678)" d="m0 0h2l-2 12v9l1 1v53l-2-4-3-29-2-4-2 1 2-16z" fill="#A9C2D1"/>
<path transform="translate(353,776)" d="m0 0h1l1 33 1 24v37l-3 35v12l-5-2 2-1 2-34v-94z" fill="#6299B5"/>
<path transform="translate(559,795)" d="m0 0h7l13 8 9 6 1 4-5 1-18-5-7-6-1-6z" fill="#03050E"/>
<path transform="translate(250,635)" d="m0 0 1 3-1 7 8 1 14 1 9 3 1-3-1 13h-1v-7l-4 1-18 1-8 1-5-4-1-3z" fill="#F8E3FD"/>
<path transform="translate(278,672)" d="m0 0h1v5l-2 3-5 1-21 1-1 2-7 5-2 1-1 2v-19h1v6l6-1v-2l9-2 7 1 3 1 3-2 8 1z" fill="#ECB7F1"/>
<path transform="translate(286,871)" d="m0 0 3 3 5 13 3 7-19 2-10-1-5-4-4-6 1-3 5 6v2h10l8-3 2-3z" fill="#50B1CA"/>
<path transform="translate(268,665)" d="m0 0h11v7l-2 4-8-1-4 2-4-2h-7l-7 1v2l-6 1v-7l24-4v-2z" fill="#FED3FF"/>
<path transform="translate(656,418)" d="m0 0 4 1v22l-1 1-14 2 2-8v-7l7-9z" fill="#fff"/>
<path transform="translate(606,456)" d="m0 0 4 1 4 3v2l3 1 4 4v3h-2l-1 4-2 1h-7l1 5 4 1 1 7-6-3v-2l-4-1-2-7-1-6 5 2v-10z" fill="#EBC1F0"/>
<path transform="translate(1252,619)" d="m0 0h6l10 7 8 9 4 6v2l-4-1-10-4-5-6-4-3-4-1z" fill="#EBC1F0"/>
<path transform="translate(497,1114)" d="m0 0 9 3 1-3 9 1 5 1 2-1 5 2v4l-8-2 3 8v3l-6 1-19-14z" fill="#65AECA"/>
<path transform="translate(586,710)" d="m0 0 3 1-6 3-10 4-1 3-15 6v3l-11 4h-3v-3l4-1v-2l4-1 2-7 5-1v-2l10-3 14-3z" fill="#62AAC9"/>
<path transform="translate(290,709)" d="m0 0 3 4 4 8 1 3v13l2 13 2 8 3 16 8 20 1 7-2-3-9-20-4-13-4-29-5-23z" fill="#A8B7CB"/>
<path transform="translate(290,626)" d="m0 0 2 1v8l-3 23-1 19h-1l-1-14-1-3h-4v-8l3-15 3-9z" fill="#C9BCD3"/>
<path transform="translate(657,462)" d="m0 0 4 4 4 6-1 9 3 3 7 3 1 3-4 2-1 2h-2l-1 2h-2l-1-6-7-5-1-9v-8l-1-4z" fill="#EFC3F5"/>
<path transform="translate(1032,746)" d="m0 0h14l11 4 9 6-2 2-6-1-9-3-5-1h-16l-6 1 1-5z" fill="#55A8D9"/>
<path transform="translate(818,1017)" d="m0 0h21l11 1-1 6-4 3h-5l-1 3-8-1 1-2h2v-3h-7l-4-2v-2l-5-1z" fill="#5C6D79"/>
<path transform="translate(686,514)" d="m0 0 9 2 5 5 7 1 10 8 1 3-13-1-10-5-9-7-1-5z" fill="#EBBFEF"/>
<path transform="translate(1308,741)" d="m0 0h1l2 7 3 8 3 4 9 1h7l-2 1v2l2 1 1 8-4-4-10-1-9-3-3-5h-1v-9z" fill="#836988"/>
<path transform="translate(1086,883)" d="m0 0 2 1-1 1 2 2-15 9-20 10h-6l-5 1 4-3 29-16 6-4z" fill="#4393B6"/>
<path transform="translate(1239,704)" d="m0 0 2 3 1 21 1 3v48l-3 40-2 3v-19l2-16v-46z" fill="#826888"/>
<path transform="translate(1308,758)" d="m0 0 2 3 1 4 13 3h6l3 2 1 6-5-1-5 1-10-1-6-2-2 3v-10z" fill="#7B6581"/>
<path transform="translate(788,374)" d="m0 0h6l-4 2-12 5-9 5-5 2-7 6-4 8-6 19-3 2h-3l2-5 3-9 3-10 7-9 14-9h5l1-3z" fill="#FAF2FD"/>
<path transform="translate(670,491)" d="m0 0h5l7 3v2l4 2v2h2l1-2 4 2v-6l5 2 4 5v3l-3-1h-9l-4 1-4-3h-9l-2-1-9-1 4-1 1-3 3-1z" fill="#EBC0EF"/>
<path transform="translate(306,606)" d="m0 0 1 2-1 7v8l-3 11-2 5 1 15 3 7-2 5-3-1-1-4v-28l1-7-1-1v-7l1-3-2-1z" fill="#F1C8F8"/>
<path transform="translate(895,848)" d="m0 0 8 1 5 3 3 6v11l-2 13-2 3 1-9v-9l-1-3-4-2-6-4 1-6-8 2 1-4z" fill="#78D4E5"/>
<path transform="translate(602,426)" d="m0 0h6l3 4v2h2l4 9 2 2-1 4h-7l-5-2-2 8-2 2 1-7 2-5h2l2-7h-2l-5-5-5-3 3-1z" fill="#F1C9F8"/>
<path transform="translate(275,739)" d="m0 0h1l1 35-1 13-2 2v-2l-4-2v-20l3-14z" fill="#9693CE"/>
<path transform="translate(457,784)" d="m0 0 1 4v24l3 17 2 10-2-2-2-7h-4l-2-3v-25l3-16z" fill="#596E7B"/>
<path transform="translate(341,728)" d="m0 0h1l1 46v56l-3 11-2 1 2-27v-12l1-15z" fill="#836988"/>
<path transform="translate(527,924)" d="m0 0 9 3 29 12v1l-5 1h-10l-12-6-5-4-4-4-2-1z" fill="#5CA8D7"/>
<path transform="translate(1256,614)" d="m0 0 5 1 10 9 9 12 7 12 5 14-1 4-7-16v-2h-2l-5-10-9-11-10-7-5-1v-1h7l-1-2z" fill="#FCD1FD"/>
<path transform="translate(647,449)" d="m0 0 10 1 4 2h6l3 7-4 1-2-3 1 3 5 4-1 3-1-2h-2l-5-6h-2l1 5-3-1-3 1-7-14z" fill="#FDD2FE"/>
<path transform="translate(1047,872)" d="m0 0 5 1v2l-12 6-9 2h-9l-5-1-1-5 3-1h16z" fill="#56AADB"/>
<path transform="translate(720,538)" d="m0 0 6 1 10 3 5 2 3 5v2h2l1 3-3 1-8-2-5-5-8-3v-2l-3-1z" fill="#DCB4E2"/>
<path transform="translate(536,887)" d="m0 0 5 2 11 6 18 4 27 11-3 1-8-3h-5l-2 1-24-10-14-7z" fill="#539BC5"/>
<path transform="translate(227,767)" d="m0 0 3 3 2 15 3 16 1 6-5 1-2-7-3-21v-10z" fill="#6CB1CC"/>
<path transform="translate(1326,799)" d="m0 0 3 1v7l-1 4h-2v-2l-8 1-7 1-7-1-1-4 1-5 5 3h9l2-1-4-2z" fill="#665C70"/>
<path transform="translate(333,851)" d="m0 0 4 2 3 19 2 8v7l-4-4-6-10v-14z" fill="#619AB4"/>
<path transform="translate(1153,554)" d="m0 0 2 1v3h2l7 12 2 6-1 3v5l-3 3-6-12-1-3h3v-7h-2v2l-4-2-1-4h2z" fill="#EDB5F2"/>
<path transform="translate(524,873)" d="m0 0 11 6 13 9 15 8 5 2-4 1-14-4-15-9-9-7z" fill="#3F89AA"/>
<path transform="translate(642,479)" d="m0 0 4 5 4 1v7l4 1 8 4v1h-7l-4-3-1 4-4 2-6-2h2l-1-19z" fill="#EBC1F0"/>
<path transform="translate(339,842)" d="m0 0h1l3 16 2 14 1 6-2 4-3-2-4-20v-11z" fill="#6489A3"/>
<path transform="translate(700,687)" d="m0 0h6v4l-20 7-12 1-3-1v-2z" fill="#020203"/>
<path transform="translate(297,672)" d="m0 0 3 3 4 7 1 9v4l-5 3h-2l-3-11v-8z" fill="#DCB5E2"/>
<path transform="translate(244,657)" d="m0 0 10 2 11-2h12v4l-3 2h-23l-8 2v-6z" fill="#fff"/>
<path transform="translate(347,629)" d="m0 0h1v36h-1l-1-10-2 51-3 2 2-44 2-28z" fill="#7E6784"/>
<path transform="translate(562,418)" d="m0 0h5l-1 4-4 5-1 5v6l-2 3-3-1-1-7h-4v-6l9-8z" fill="#FCD1FD"/>
<path transform="translate(280,725)" d="m0 0 4 1 3 15-2 11-1 2-4-2-1-2v-19z" fill="#A8CCDF"/>
<path transform="translate(812,638)" d="m0 0 13 1v1l-32 5-13 3h-7l3-3 7-4 18-2 6 1 3 1v-2z" fill="#C4A2D4"/>
<path transform="translate(350,604)" d="m0 0 3 4 5 2 2 4-3 1 1 10h-2v7h2l1 3v9l-2 1-2-10-2-11h-2l-1-10z" fill="#B6B7CC"/>
<path transform="translate(675,447)" d="m0 0 4 4v2h2l4 5 8 6-1 5-1 1-7-1-4-4-9-3-3-9 2 1 3 5 5 2h3l-1-4-5-8z" fill="#F9E0FD"/>
<path transform="translate(342,830)" d="m0 0h1l2 13 3 2-2 21v9l-2-3-5-31z" fill="#5C6C78"/>
<path transform="translate(1301,626)" d="m0 0 7 6 7 9 4 9h-2l-6-9-2-1-24-1-1-4 20-1-3-6z" fill="#FBEDFD"/>
<path transform="translate(1112,725)" d="m0 0 6 2 6 4v2l4 2 7 8 8 16 4 13v5l-2-1-7-21-7-11-4-5-2-1v-2h-2v-2l-4-2-7-6z" fill="#4C8BA5"/>
<path transform="translate(987,933)" d="m0 0 3 1-5 7-13 6-5 2-4-1-5 1-1-3 26-11z" fill="#559DC8"/>
<path transform="translate(1252,643)" d="m0 0 5 5v2l6-1 8 5 3 3v2l3 1 1 3-3 3-6-2-1-3-7-6-4-1-5-9z" fill="#CAADD7"/>
<path transform="translate(1281,648)" d="m0 0h3l6 14-1 2-5-1v2l-6-2-5-6 6-8z" fill="#DEAFE3"/>
<path transform="translate(1e3 700)" d="m0 0h11l8 1 4 6-1 3h-12l-4-4-6-3z" fill="#030E18"/>
<path transform="translate(1223,596)" d="m0 0 7 1 6 3 1 3 4 1v2h2l2 4-4 1 8 16 4 10-1 4-3-4v-2l-3-1-3-12-3-7-2-9-5-2-6-5-4-2z" fill="#DCC2E3"/>
<path transform="translate(760,989)" d="m0 0 13 2 25 4 28 2h19l14-1h10v1l-22 2h-27l-30-2-25-5-5-2z" fill="#4197B8"/>
<path transform="translate(319,854)" d="m0 0 12 12 3 8v12l-2-4-5-11v-2l-4-1v11l-2-4-1-9v-7z" fill="#5DB3C7"/>
<path transform="translate(1176,864)" d="m0 0 2 1-7 11-6 7-9 7-2-1 3-6 2-6 5-2 5-5z" fill="#5C6D78"/>
<path transform="translate(297,698)" d="m0 0h2l4 6 3 5-1 13h-3l-1 5h-2l-1-2z" fill="#CAADD7"/>
<path transform="translate(695,439)" d="m0 0 4 1 7 7-4 1 1 7-2 2-6 1-3-5 1-9z" fill="#F1C9F8"/>
<path transform="translate(602,528)" d="m0 0 5 1 4 7-2 2-9 2h-7l-2-1 1-4z" fill="#DCC2E3"/>
<path transform="translate(1227,596)" d="m0 0h8l12 4 9 5-2 1-5-2 2 7 4 1 1 2-6-2-7-1v-3-2h-2v-2l-4-1-4-4-6-2z" fill="#EFC5F3"/>
<path transform="translate(350,828)" d="m0 0h1v60l-4 1-2-23 1-8h1l2 13z" fill="#4F7B8A"/>
<path transform="translate(279,662)" d="m0 0 1 3-15 1v2l-10 3-14 1 1-5 5-2 30-2z" fill="#F8E3FD"/>
<path transform="translate(353,899)" d="m0 0h2l1 14 2 6 3 15 2 8-3-3-2-7h-2l-5-13 1-3v-11z" fill="#4CB1CB"/>
<path transform="translate(1288,787)" d="m0 0 3 3 1 3 3 3 8 1-1 9-1 2-5 1-6-9-2-9-1-3z" fill="#796480"/>
<path transform="translate(1287,783)" d="m0 0 4 1v2l6-1v2h7v7l-2 4-7-1-1-3-3-1-3-6z" fill="#836887"/>
<path transform="translate(1292,662)" d="m0 0 4 2 6 5 2 6-3 5-5 1-2-4-2-2-1-6-1-5z" fill="#E7A8EB"/>
<path transform="translate(630,373)" d="m0 0 4 1-1 4-6 5-5 6-5 1-2-5 6-7z" fill="#FCF7FE"/>
<path transform="translate(834,638)" d="m0 0h34l1 2-32 1-19 2-18 2 1-2 16-3z" fill="#4297B8"/>
<path transform="translate(1216,601)" d="m0 0 8 2 8 8v2h2v4h-3l6 7 3 3v2h2l2 3v3h-2l-7-9-5-4v-2h-2v-6l-5-6-6-3z" fill="#B785BF"/>
<path transform="translate(814,856)" d="m0 0h11l6 5 2 4v10h-1l-1-7-2-2-7-1-3-3v-3l-6 2-6 3 2-4 3-1v-2z" fill="#7FDCEB"/>
<path transform="translate(298,652)" d="m0 0 2 1v8l1 4 4 2 3-3h2l-1 5-3 9-4 1-4-6-1-7z" fill="#EEB5F3"/>
<path transform="translate(239,676)" d="m0 0h1v40l6 5 1 3-1 5-2 2h-3l-3-5-1-11 1-27z" fill="#CCABD6"/>
<path transform="translate(891,851)" d="m0 0m-1 1m-1 1h5l1 3-3 5-2 17-5 10-8 8-6 3h-2v-2l10-6 5-6 3-10 2-12 1-5-3-1z" fill="#74F9FF"/>
<path transform="translate(747,672)" d="m0 0h2l3 3h8l5 3v4h-6l-8-2-10-1-3-3 3-2z" fill="#04060F"/>
<path transform="translate(1308,666)" d="m0 0 11 2 7 5 4 8 1 7-2-1-3-6-6-2-2-5-4-1-2-2-2-4z" fill="#CAAED7"/>
<path transform="translate(1249,640)" d="m0 0 4 5 6 11 3 3 4 8 4 6 4 7 3 4h-3l-8-10-7-14-4-4-1-4-3-1-3-7z" fill="#BCA8CD"/>
<path transform="translate(295,688)" d="m0 0 2 4 1 6v26l-2-3-3-17-2-13h3z" fill="#C9B5D7"/>
<path transform="translate(1307,772)" d="m0 0h1l1 8 7 3 1 3-6 1v3h-2v2h-2l1 3-2 4-3-1 2-20z" fill="#665C6F"/>
<path transform="translate(617,463)" d="m0 0 6 4v10l5 6-1 2-5-5h-5l-1 3h-2v-2l-5-1v-5l9-2 1-3h2l-1-3-3-2z" fill="#F1C9F8"/>
<path transform="translate(276,774)" d="m0 0h1l2 18v25l-2-1-2-11-2-6 2-12z" fill="#5EA9D4"/>
<path transform="translate(343,795)" d="m0 0h2l1 26v27h-1l-3-20v-22z" fill="#796680"/>
<path transform="translate(1249,603)" d="m0 0 10 5 8 7 4 5-1 4-10-9-5-2-4-2-3-5z" fill="#E9A9EC"/>
<path transform="translate(494,796)" d="m0 0h1l1 20 5 18 7 14-1 2-5-8-4-2-2-5-1-7-1-4z" fill="#3A7292"/>
<path transform="translate(254,674)" d="m0 0h7l4 3-3 1 4 2-13 1-7 2h-4l-1-4 6-1v-2z" fill="#E9A9EC"/>
<path transform="translate(1234,611)" d="m0 0 4 2 5 13 5 9v6l-2-1-4-9v-2h-2l-1-4-4-2-4-4v-2h3z" fill="#BEA5CD"/>
<path transform="translate(248,642)" d="m0 0 2 3 8 1 14 1 9 3 1-3v5l-4-1h-27l-3-1-1-5z" fill="#FDD2FE"/>
<path transform="translate(243,653)" d="m0 0 1 3-4 20-2 8-2 16-2-1v-9l2-12 1-7z" fill="#A8B7CB"/>
<path transform="translate(318,622)" d="m0 0 5 1 4 4-3 3h-4l-2 4h-3l-1 3-2-1 1-7 4-6z" fill="#FBF5FE"/>
<path transform="translate(671,393)" d="m0 0h2l2 14-5 6-3 1-2-2 1-6 3-7z" fill="#FCF7FE"/>
<path transform="translate(286,871)" d="m0 0 3 3 5 13-1 2-3-2v2l-7 2h-8l4-2 5-3 1-7z" fill="#66AECA"/>
<path transform="translate(611,384)" d="m0 0v3 9l5-1-2 5-5 3-4-1 1-5-2-5 2-4h2v-2z" fill="#FED3FF"/>
<path transform="translate(814,859)" d="m0 0h3l-1 5-2 3-2 12-1 3h-4v-8h2l2-8-4 2 1-5z" fill="#75F8FE"/>
<path transform="translate(1218,605)" d="m0 0 5 2 6 7-1 6h2l-1 2-4-1-2 3-5-16z" fill="#A375A8"/>
<path transform="translate(684,430)" d="m0 0 4 1 4 4-1 5-4 5-4-1-1-11z" fill="#F8E4FD"/>
<path transform="translate(857,655)" d="m0 0h22l11 1 1 2-6 1h-19l-9-3z" fill="#020203"/>
<path transform="translate(389,724)" d="m0 0 9 3 5 3 1 6-6-1-9-5-1-4z" fill="#F8E4FD"/>
<path transform="translate(290,709)" d="m0 0 3 4 4 8 1 3v13l1 4h-2l-3-10-4-18z" fill="#B5B9CC"/>
<path transform="translate(349,816)" d="m0 0h1v55l-2 1-1-7v-16l1-4z" fill="#4F6E7A"/>
<path transform="translate(1137,574)" d="m0 0 6 3 8 19v3l-3-1-11-21z" fill="#FADDFD"/>
<path transform="translate(355,859)" d="m0 0h1v11l-3 35v12l-5-2 2-1 2-33 1-1z" fill="#5E9EB4"/>
<path transform="translate(661,424)" d="m0 0h1l1 6 8 3 5 5-1 9-2-2-1-3-6-3-5-8z" fill="#F8E4FD"/>
<path transform="translate(236,730)" d="m0 0h1l3 39 2 9 3 5-4-2-3-9-2-10z" fill="#A8B8CB"/>
<path transform="translate(1293,622)" d="m0 0 6 2 4 6v3l3 1-6 1-3-2v-2h-2v-2l-6-2v-4l4 1z" fill="#F1C7F6"/>
<path transform="translate(668,476)" d="m0 0 4 1 1 4 3 1v2l5 2 4 3 4 1 1 5h-2l-1 3v-4l-5-2-7-5-2-4-5-4z" fill="#F0C8F7"/>
<path transform="translate(710,459)" d="m0 0 6 1 2 2-1 1 2 1v2h2v2l-3 1-11-2-2-2z" fill="#F0C7F7"/>
<path transform="translate(403,730)" d="m0 0 5 2 8 5v6l-5-1-9-5 2-1z" fill="#DDC3E4"/>
<path transform="translate(1103,724)" d="m0 0h6l12 12 2 4-4 1-9-9v-2l-4-2 1-1-4-1z" fill="#04060F"/>
<path transform="translate(401,706)" d="m0 0 6 2 11 7 8 5v2l-9-3-8-4v-2l-6-2-2-2z" fill="#DDC3E4"/>
<path transform="translate(619,883)" d="m0 0 11 7 3 4 3 2-4 1-7-3-4-2-4-6z" fill="#020202"/>
<path transform="translate(704,514)" d="m0 0h6l9 6 4 6-1 2-11-6-5-5z" fill="#EBC0EF"/>
<path transform="translate(630,483)" d="m0 0h6l6 4v6l-3 1-7-3-2-6z" fill="#F8E4FD"/>
<path transform="translate(623,457)" d="m0 0 5 2 7 6v8l-3 1-3-3-3-7-3-3z" fill="#EDBFF2"/>
<path transform="translate(748,453)" d="m0 0 2 1-1 6-4 9-1 2-6 1-7-2-1 2-4-3v-3l6 1 4 2h6z" fill="#F0C8F7"/>
<path transform="translate(706,437)" d="m0 0 10 4 3 4-2 4v-3l-5 1 1-4-5-2-1 5h-3l-6-7h6z" fill="#FBD0FD"/>
<path transform="translate(681,911)" d="m0 0 9 1 6 4 1 2-2 1h-7l-8-4-1-3z" fill="#020202"/>
<path transform="translate(1146,777)" d="m0 0h2l1 9v17l-1 8h-2z" fill="#4F89A2"/>
<path transform="translate(777,663)" d="m0 0 5 1 2 4-11 3h-5l-2-5z" fill="#04060F"/>
<path transform="translate(1305,649)" d="m0 0h5l7 5 3 1 2 7-7-2-5-5-7-4z" fill="#DDC2E4"/>
<path transform="translate(355,879)" d="m0 0 2 2 1 3v12l-2 17h-1v-14h-2z" fill="#5CB2C7"/>
<path transform="translate(569,414)" d="m0 0 3 1-4 8-3 9-3 6h-1l-1-8 3-6h2l2-6-4-1z" fill="#F1C9F8"/>
<path transform="translate(301,678)" d="m0 0 3 4 1 9v4l-5 3-2-1 2-16z" fill="#DEAEE3"/>
<path transform="translate(732,428)" d="m0 0h6l1 2v7l-2 2-5-1-2-7z" fill="#fff"/>
<path transform="translate(868,638)" d="m0 0h17l11 1 2 2-1 1-28-1z" fill="#4296B7"/>
<path transform="translate(1223,596)" d="m0 0 7 1 6 3 1 3 4 1v2h2l2 4-5 1-2-5-5-2-6-5-4-2z" fill="#DCB5E2"/>
<path transform="translate(657,482)" d="m0 0 7 5 3-1 4 1h3l1 3-4 2-1 2h-2l-1 2h-2l-1-6-7-5z" fill="#E9AAEC"/>
<path transform="translate(277,741)" d="m0 0 2 3 1 12-1 5-1 14-2-3v-22z" fill="#91BED2"/>
<path transform="translate(1246,620)" d="m0 0 5 4 2 1 7 15-1 3-6-7-6-11z" fill="#FBEDFD"/>
<path transform="translate(357,613)" d="m0 0h2l5 9v3h-2l-1 4-4-1-1 4v-7h2l-2-11z" fill="#C5BDD1"/>
<path transform="translate(672,474)" d="m0 0 5 5 6 3 5 5-1 3-5-2-6-4-4-5v-2l-2-1h2z" fill="#FADDFD"/>
<path transform="translate(340,810)" d="m0 0 3 4v16l-3 11-2 1 2-27z" fill="#81718D"/>
<path transform="translate(1288,648)" d="m0 0 3 1 5 5 1 3 4 2 4 4 5 2-4 1-5-3-4-3v-2l-6-2-1 3-3-9z" fill="#E8AAEB"/>
<path transform="translate(570,942)" d="m0 0 5 1 18 7v1l-9 1-5-1-3-3v-3l-6-2z" fill="#5CA8D7"/>
<path transform="translate(1146,544)" d="m0 0 4 4 3 5v8h-3l-4-9-4-5 1-2 3 2z" fill="#FDD2FE"/>
<path transform="translate(696,404)" d="m0 0h2l2 9v10l-4 4v8l-2-2v-7l2-7z" fill="#FAEFFD"/>
<path transform="translate(623,456)" d="m0 0 4 1 8 5 3 5v5l1 1 2-4v10l-3-1-3-5-1-8-11-8z" fill="#FED3FF"/>
<path transform="translate(649,447)" d="m0 0h15l4 4-1 2h-6l-6-2-9-1v-2z" fill="#F8E4FD"/>
<path transform="translate(717,517)" d="m0 0 5 2 7 3 2 5-7 2-7-11z" fill="#DDB6E3"/>
<path transform="translate(317,620)" d="m0 0 7 1 6 5 1 7-6-1-5-1 4-2h2l-1-4-4-2-4 1-2 1z" fill="#F8DEFD"/>
<path transform="translate(671,482)" d="m0 0 3 1 1 4 4 2 8 5v4l-5-2v-2l-6-1-3-3h2l-4-4-4-2h4z" fill="#FDD2FE"/>
<path transform="translate(835,918)" d="m0 0 18 2h11l2-1h7l-3 2-10 2h-10l-13-3z" fill="#529CB9"/>
<path transform="translate(522,887)" d="m0 0 4 2 10 8 5 5 5 4 3 1v2l-4-1-6-3v-2l-4-1-2-5h-2v-2l-5-2-4-4z" fill="#66AECA"/>
<path transform="translate(1233,604)" d="m0 0 5 2 2 3 2 8 4 11-1 4-6-13-3-9-3-4z" fill="#CAB2D7"/>
<path transform="translate(903,890)" d="m0 0 2 1-6 10-4 5-7 6v-3l3-5 6-5 2-5z" fill="#66D1E2"/>
<path transform="translate(686,923)" d="m0 0 6 1 4 4-1 5h-4v-2l-4-2-2-3z" fill="#030E18"/>
<path transform="translate(1061,896)" d="m0 0 2 1-2 2 1 3-8 4h-6l-5 1 4-3z" fill="#3F89A9"/>
<path transform="translate(950,692)" d="m0 0 8 2 5 3v3l-11-2-5-1 1-4z" fill="#020202"/>
<path transform="translate(1293,639)" d="m0 0h16l5 4 3 5v2l-4-2-6-4v-2h-3v-2h-11z" fill="#F1C8F7"/>
<path transform="translate(736,423)" d="m0 0h5l-1 2 5 1-3 2-7-1-10 3-7 2-4-1 18-7z" fill="#F9E1FD"/>
<path transform="translate(760,989)" d="m0 0 13 2 22 4v2l-12-1-22-5z" fill="#4D98B8"/>
<path transform="translate(1256,614)" d="m0 0 5 1 9 8v4l-4-2-8-5-5-1v-1h7l-1-2z" fill="#FADCFD"/>
<path transform="translate(1e3 927)" d="m0 0h8l2 1v2l-12 5-3-1 4-2v-2l-6 1 4-3z" fill="#5EA5C2"/>
<path transform="translate(892,658)" d="m0 0h10l15 3 1 2-2 1h-7l-7-3-10-2z" fill="#020304"/>
<path transform="translate(1274,657)" d="m0 0 6 2 6-2 3 2 1 5-6-1v2l-6-2-4-4z" fill="#E8AAEB"/>
<path transform="translate(347,615)" d="m0 0 2 2v23h-1l-1-10-2 17h-1v-12l2-18z" fill="#8E7095"/>
<path transform="translate(454,828)" d="m0 0 1 2h4l3 9h2l1 5-4-2v-2l-5-2-2-6z" fill="#7F708B"/>
<path transform="translate(349,785)" d="m0 0h1l1 11v32h-1l-2-31z" fill="#5B737E"/>
<path transform="translate(806,864)" d="m0 0 2 3 3-1-1 6-1 2h-2v13l-2-4v-16z" fill="#5FCADE"/>
<path transform="translate(654,701)" d="m0 0h6v4l-6 3-5-1-2-3z" fill="#020203"/>
<path transform="translate(1237,827)" d="m0 0h1v11l-3 17h-1v-16l2-11z" fill="#6A5C72"/>
<path transform="translate(349,733)" d="m0 0 2 3 1 14-2 8-2-2v-22z" fill="#5C6E7A"/>
<path transform="translate(298,725)" d="m0 0 3 4 4 12 2 9-3-2-5-13z" fill="#BAA8CD"/>
<path transform="translate(298,652)" d="m0 0 2 1v8l1 4 3 2-2 6h-2l-1 2-2-9z" fill="#EBC0EF"/>
<path transform="translate(350,604)" d="m0 0 4 8 1 12-2 2v-2h-2l-1-10z" fill="#BEA7CE"/>
<path transform="translate(665,472)" d="m0 0 3 2 2 6 1 4h-5l-3-3v-6z" fill="#FBDBFE"/>
<path transform="translate(301,703)" d="m0 0 5 5-1 14-3-3z" fill="#CFA4D6"/>
<path transform="translate(288,681)" d="m0 0 2 4 3 13 3 18h-2l-4-18-2-12z" fill="#C7BCD2"/>
<path transform="translate(825,639)" d="m0 0 4 1-5 2-20 3-4-1 4-2z" fill="#4499BC"/>
<path transform="translate(1284,635)" d="m0 0h16l-4 2 11 1v1h-22z" fill="#F9DFFD"/>
<path transform="translate(1270,624)" d="m0 0 5 5 7 10v3l-4-2-8-11-1-2z" fill="#FDD3FE"/>
<path transform="translate(708,441)" d="m0 0 5 1 2 2h-3l1 7-3 1-4-3 1-6z" fill="#ECB5F0"/>
<path transform="translate(278,672)" d="m0 0h1v5l-6 2h-14l3-2 7-3 8 1z" fill="#EDC2F4"/>
<path transform="translate(1263,722)" d="m0 0 2 2 3 14v2l-3-1-3-6v-10z" fill="#7B6581"/>
<path transform="translate(607,779)" d="m0 0 4 2-5 9-3 3-1-5 3-7z" fill="#04060F"/>
<path transform="translate(653,485)" d="m0 0 4 1v2l3 1-1 5h-5l-2-3v-5z" fill="#F8E2FD"/>
<path transform="translate(997,930)" d="m0 0h3v2l-4 4-9 3 1-4 4-4z" fill="#5DADD6"/>
<path transform="translate(1010,757)" d="m0 0 3 1-10 9-3 5-5 5-2 1 2-5 2-3h2l2-5 8-7z" fill="#7DD0E2"/>
<path transform="translate(788,374)" d="m0 0h6l-4 2-12 5-9 5-2-1 7-4 2-3z" fill="#FCE2FE"/>
<path transform="translate(790,944)" d="m0 0h7l4 1-1 4h-9l-2-4z" fill="#020202"/>
<path transform="translate(614,902)" d="m0 0 14 2v3l-9-1 1 2-6-1-2-3z" fill="#030E18"/>
<path transform="translate(452,744)" d="m0 0 3 3-1 5-3 3h-2l-1-6 2-4z" fill="#A8CCDF"/>
<path transform="translate(1257,710)" d="m0 0 3 4 2 6 1 5v11l-2-1-2-13-2-7z" fill="#736C7F"/>
<path transform="translate(1292,662)" d="m0 0 2 3 3 9v7l-5-5-1-7-1-5z" fill="#DCBBE3"/>
<path transform="translate(1224,622)" d="m0 0 4 2 4 6 4 7-1 3-3-4-4-7v-2h-2l-1 3z" fill="#7C6783"/>
<path transform="translate(616,396)" d="m0 0 3 1-2 4-2 9-4 1 1-5 1-4-1-2h2z" fill="#E9A9EC"/>
<path transform="translate(1239,797)" d="m0 0h2v11l-1 11-2 3v-19z" fill="#806785"/>
<path transform="translate(295,618)" d="m0 0h2l-3 13-3 1v-5l-3 1 2-4z" fill="#CCBDD6"/>
<path transform="translate(362,635)" d="m0 0 4 4 3 7v4h-4l-2-10z" fill="#DBC2E2"/>
<path transform="translate(670,491)" d="m0 0 3 3 2 5-4 1-9-1 4-1 1-3 3-1z" fill="#EFC6F5"/>
<path transform="translate(553,713)" d="m0 0h7l-4 2-18 5-4-1 7-3z" fill="#A2C0D0"/>
<path transform="translate(328,606)" d="m0 0 2 2-1 8-2 4-1 3-2-2 1-9z" fill="#EEB5F3"/>
<path transform="translate(1110,878)" d="m0 0 4 2-4 5-6 5h-2v-2h2v-2h2l-1-5z" fill="#65AECA"/>
<path transform="translate(514,721)" d="m0 0h8l5 1-3 2-8 3h-3l-1-4z" fill="#A6C0D0"/>
<path transform="translate(793,644)" d="m0 0h6v2l-20 4h-5l2-2z" fill="#469ABD"/>
<path transform="translate(844,890)" d="m0 0 7 2h11l5-1 5 1-3 3-20-1-5-2z" fill="#56A6C1"/>
<path transform="translate(538,738)" d="m0 0 4 2 2 4-1 4-4-1-2-3v-5z" fill="#020202"/>
<path transform="translate(629,517)" d="m0 0 5 2 4 7-1 2-4-2-3-3z" fill="#DDC3E4"/>
<path transform="translate(701,489)" d="m0 0 2 1-2 4 3 6-1 4-3-4-3-6v-4z" fill="#EDBAF2"/>
<path transform="translate(269,678)" d="m0 0h8v2l-5 1-21 1-1 2v-3l3-1 13-1z" fill="#EDB5F2"/>
<path transform="translate(1284,642)" d="m0 0 5 2 6 7 2 1-1 3-5-4-3-3-1 2-3-6z" fill="#DEAEE3"/>
<path transform="translate(286,638)" d="m0 0 2 2-2 6v8l-3 3-1-2 1-12z" fill="#C4BED0"/>
<path transform="translate(571,437)" d="m0 0 2 1-1 6-6 2-1-4 3-4z" fill="#FDD2FE"/>
<path transform="translate(328,871)" d="m0 0h4l2 3v12l-2-4-4-10z" fill="#5CA8D7"/>
<path transform="translate(597,911)" d="m0 0 6 1 10 4-4 2-6-1-6-5z" fill="#4F94BD"/>
<path transform="translate(385,740)" d="m0 0 6 2 6 4v3l-4-1-6-3z" fill="#F9E9FD"/>
<path transform="translate(1162,596)" d="m0 0 2 3 1 7-4-2v5l-3-1 1-7 1-4z" fill="#EEB5F3"/>
<path transform="translate(1153,554)" d="m0 0 2 1 2 6-1 6-4-2-1-4h2z" fill="#F0C8F7"/>
<path transform="translate(559,878)" d="m0 0 4 1 1 4-3 3-4-1 1-6z" fill="#030E18"/>
<path transform="translate(1256,606)" d="m0 0 5 2 10 8 2 4h-3l-7-8-7-5z" fill="#FAE3FD"/>
<path transform="translate(545,467)" d="m0 0 6 2 1 3-2 2-5-1-2-2v-3z" fill="#D0BFD8"/>
<path transform="translate(623,908)" d="m0 0 8 1 3 4-3 2-5-2-3-3z" fill="#030E18"/>
<path transform="translate(972,699)" d="m0 0 6 1 3 1v3h-9l-1-4z" fill="#020202"/>
<path transform="translate(898,640)" d="m0 0 13 1v3l-12-1-2-2z" fill="#4297B9"/>
<path transform="translate(1250,632)" d="m0 0h2l5 9-3 2-4-1-3-3 2-4 3 5-1-5z" fill="#D7BEE0"/>
<path transform="translate(601,417)" d="m0 0h4l-1 6-1 1h-5v-5z" fill="#F8E3FD"/>
<path transform="translate(891,851)" d="m0 0m-1 1m-1 1h5l1 3-4 7-1-3v-2l-3-1z" fill="#79F7FE"/>
<path transform="translate(278,683)" d="m0 0 4 1 2 4-1 3-3-1-1 9h-1z" fill="#B7BCCC"/>
<path transform="translate(550,365)" d="m0 0 2 1 1 7-4 1-3-4 1-3z" fill="#EBC0EF"/>
<path transform="translate(1120,693)" d="m0 0 3 3 3 10-4-1-2-6z" fill="#F8DFFC"/>
<path transform="translate(693,494)" d="m0 0 5 2 4 5v3l-4-2-4-4z" fill="#FADDFD"/>
<path transform="translate(672,491)" d="m0 0 4 1 5 3-1 3-6-1-2-3z" fill="#EDB9F2"/>
<path transform="translate(642,453)" d="m0 0 2 3 1 11h-2l-1 2-1-1v-8z" fill="#F0C7F6"/>
<path transform="translate(585,457)" d="m0 0 4 2-1 5-3 2-2-1v-6z" fill="#FED3FF"/>
<path transform="translate(748,411)" d="m0 0 1 4-3 7-5 1 2-5 3-4h2z" fill="#FAEEFD"/>
<path transform="translate(352,895)" d="m0 0h1v22l-5-2 2-1 1-17z" fill="#4197B8"/>
<path transform="translate(990,394)" d="m0 0 6 2 10 7-3 1-13-8z" fill="#FBEBFE"/>
<path transform="translate(235,678)" d="m0 0h2l-2 12-2 5-2 1 2-11z" fill="#ACC4D6"/>
<path transform="translate(536,887)" d="m0 0 5 2 11 6 1 2-5-1-11-7z" fill="#5CA8D7"/>
<path transform="translate(369,647)" d="m0 0h2l1 10-4-1-2-6h3z" fill="#D0BFD8"/>
<path transform="translate(632,414)" d="m0 0 4 1v10l-2-4-1-3-6 3 2-4z" fill="#F8E5FD"/>
<path transform="translate(853,1017)" d="m0 0h14v2l-4 2h-5l-1-2z" fill="#5B6D78"/>
<path transform="translate(813,901)" d="m0 0 4 1 8 8 1 3-4-2-9-9z" fill="#62CFE3"/>
<path transform="translate(1233,623)" d="m0 0 4 1 3 3v2h2l2 3v3h-2l-7-9z" fill="#A98BC5"/>
<path transform="translate(1221,611)" d="m0 0 4 4 2 6h-2l-2 3-2-6z" fill="#94729B"/>
<path transform="translate(620,507)" d="m0 0 5 1 1 4h-7l-1-4z" fill="#DDC3E4"/>
<path transform="translate(726,466)" d="m0 0 6 1 5 3-4 1-2-1-1 2-4-3z" fill="#F0C6F6"/>
<path transform="translate(1072,918)" d="m0 0 2 1-1 1 2 2-8 3-3-1 3-3z" fill="#6390AB"/>
<path transform="translate(903,890)" d="m0 0 2 1-6 10h-3l3-7z" fill="#6AE0EF"/>
<path transform="translate(551,869)" d="m0 0h4l1 7h-3l-2-1-1-5z" fill="#030E18"/>
<path transform="translate(1176,864)" d="m0 0 2 1-3 5-4 3-6 1 4-4z" fill="#5B7782"/>
<path transform="translate(1249,640)" d="m0 0 4 5 1 4-2 3-4-8z" fill="#BC98C7"/>
<path transform="translate(486,878)" d="m0 0 4 1 11 10h-3l-10-8z" fill="#687184"/>
<path transform="translate(401,706)" d="m0 0 6 2 3 4-1 2-8-5z" fill="#F8E4FD"/>
<path transform="translate(1282,641)" d="m0 0 4 5 1 4h-3v-2h-2l-2-3v-3z" fill="#F8D2FB"/>
<path transform="translate(1255,632)" d="m0 0 3 4 2 4-1 3-6-7-1-3z" fill="#F9DDFD"/>
<path transform="translate(631,487)" d="m0 0 9 4 1-4h1v6l-3 1-7-3z" fill="#FED3FF"/>
<path transform="translate(569,414)" d="m0 0 3 1-3 6h-2v-3l-4-1z" fill="#F0C8F7"/>
<path transform="translate(321,862)" d="m0 0 2 3 1 3-1 11-2-4-1-9z" fill="#66AECA"/>
<path transform="translate(1320,784)" d="m0 0h11v3l-4 1h-4v-2z" fill="#665C6F"/>
<path transform="translate(531,739)" d="m0 0 4 1-11 7-2 1 1-4z" fill="#508FB0"/>
<path transform="translate(1247,616)" d="m0 0 4 1v8l-5-5z" fill="#fff"/>
<path transform="translate(1237,827)" d="m0 0h1v11l-3 1v-8z" fill="#79647F"/>
<path transform="translate(884,639)" d="m0 0h12l2 2-1 1-11-1z" fill="#4594B4"/>
<path transform="translate(672,474)" d="m0 0 5 5 3 2h-3l1 3h-2l-4-5v-2l-2-1h2z" fill="#FED3FF"/>
<path transform="translate(770,381)" d="m0 0 4 1-10 6-4 2 2-4z" fill="#FAEFFD"/>
<path transform="translate(245,783)" d="m0 0 8 1 9 2 1 2-11-1-7-3z" fill="#A8B7CB"/>
<path transform="translate(243,653)" d="m0 0 1 3-2 12h-3l2-10z" fill="#C6BED6"/>
<path transform="translate(1221,596)" d="m0 0 6 2 6 5-1 2-7-5-5-2z" fill="#CEA5D6"/>
<path transform="translate(634,492)" d="m0 0 9 1-1 6h-3l-2-6z" fill="#F1C9F7"/>
<path transform="translate(702,490)" d="m0 0 1 3h3v2l2 1-2 2-4-1-2-5z" fill="#DEAEE3"/>
<path transform="translate(240,667)" d="m0 0h1l-1 9h-4l2-8z" fill="#A2BAD2"/>
<path transform="translate(716,463)" d="m0 0 3 1v2h2v2l-3 1-6-3z" fill="#FED3FF"/>
<path transform="translate(650,457)" d="m0 0 3 3 1 7-5-1z" fill="#F8E4FD"/>
<path transform="translate(536,1103)" d="m0 0 3 1v6l-4 1v-7z" fill="#66AECA"/>
<path transform="translate(627,772)" d="m0 0v3h-2v2l-8 5-2-1 10-8z" fill="#5CB7EC"/>
<path transform="translate(1279,633)" d="m0 0 3 1 3 4-1 5-4-5z" fill="#DFB3E4"/>
<path transform="translate(1247,629)" d="m0 0 3 2 3 6-1 4-4-6z" fill="#FADCFD"/>
<path transform="translate(290,626)" d="m0 0 2 1-1 5-4 4 1-8z" fill="#B6B7CC"/>
<path transform="translate(1233,604)" d="m0 0 5 2 2 5-2 4-2-5-3-4z" fill="#CAACD6"/>
<path transform="translate(615,959)" d="m0 0 5 1 6 2-1 3-10-4z" fill="#609BBB"/>
<path transform="translate(1308,638)" d="m0 0 6 2 5 10h-2l-6-9z" fill="#FBD9FE"/>
<path transform="translate(611,476)" d="m0 0 1 2 3-1 1 4-2 1-5-2v-3z" fill="#FED3FF"/>
</svg>
